<svg width="85" height="35" viewBox="0 0 85 35" fill="none" xmlns="http://www.w3.org/2000/svg">
<g clip-path="url(#clip0_2001_76)">
<path d="M45.0674 10.9167H47.9115L50.0446 15.8939H35.8242L37.9573 10.9167H40.8013M43.6454 5.93962C43.6454 6.1282 43.5705 6.30905 43.4372 6.44239C43.3038 6.57573 43.123 6.65064 42.9344 6.65064C42.7458 6.65064 42.565 6.57573 42.4316 6.44239C42.2983 6.30905 42.2234 6.1282 42.2234 5.93962C42.2234 5.75105 42.2983 5.5702 42.4316 5.43686C42.565 5.30352 42.7458 5.22861 42.9344 5.22861C43.123 5.22861 43.3038 5.30352 43.4372 5.43686C43.5705 5.5702 43.6454 5.75105 43.6454 5.93962ZM38.6683 5.93962C38.6683 9.49471 42.9344 13.0498 42.9344 13.0498C42.9344 13.0498 47.2005 9.49471 47.2005 5.93962C47.2005 3.51008 45.2907 1.67352 42.9344 1.67352C40.5781 1.67352 38.6683 3.51008 38.6683 5.93962Z" stroke="black" stroke-width="1.42203"/>
</g>
<path d="M6.60508 29.5527L5.25347 26.0505C5.21342 25.9464 5.17137 25.8262 5.12732 25.6901C5.08327 25.5499 5.04122 25.4017 5.00117 25.2455C4.91707 25.5699 4.83097 25.8402 4.74286 26.0565L3.39125 29.5527H6.60508ZM9.03197 32.7485H8.13089C8.02677 32.7485 7.94267 32.7224 7.87859 32.6704C7.81452 32.6183 7.76646 32.5522 7.73442 32.4721L6.92946 30.3937H3.06687L2.26191 32.4721C2.23788 32.5442 2.19182 32.6083 2.12374 32.6644C2.05566 32.7204 1.97156 32.7485 1.87144 32.7485H0.970369L4.41247 24.1402H5.58987L9.03197 32.7485ZM10.9039 27.8827C11.0961 27.4662 11.3324 27.1418 11.6127 26.9095C11.893 26.6732 12.2354 26.5551 12.6399 26.5551C12.7681 26.5551 12.8902 26.5691 13.0064 26.5972C13.1265 26.6252 13.2326 26.6692 13.3247 26.7293L13.2466 27.5283C13.2226 27.6284 13.1625 27.6784 13.0664 27.6784C13.0104 27.6784 12.9283 27.6664 12.8201 27.6424C12.712 27.6184 12.5899 27.6064 12.4537 27.6064C12.2615 27.6064 12.0893 27.6344 11.9371 27.6905C11.7889 27.7465 11.6547 27.8306 11.5346 27.9428C11.4185 28.0509 11.3123 28.187 11.2162 28.3512C11.1241 28.5114 11.04 28.6956 10.9639 28.9039V32.7485H9.88864V26.6632H10.5014C10.6175 26.6632 10.6976 26.6853 10.7417 26.7293C10.7857 26.7734 10.8157 26.8495 10.8318 26.9576L10.9039 27.8827ZM18.0914 29.0421C18.0914 28.7938 18.0554 28.5675 17.9833 28.3633C17.9152 28.155 17.8131 27.9768 17.6769 27.8286C17.5448 27.6764 17.3826 27.5603 17.1903 27.4802C16.9981 27.3961 16.7798 27.3541 16.5356 27.3541C16.0229 27.3541 15.6165 27.5042 15.3161 27.8046C15.0198 28.1009 14.8355 28.5134 14.7634 29.0421H18.0914ZM18.9564 31.8955C18.8243 32.0556 18.6661 32.1958 18.4819 32.316C18.2977 32.4321 18.0994 32.5282 17.8872 32.6043C17.6789 32.6804 17.4627 32.7365 17.2384 32.7725C17.0141 32.8126 16.7919 32.8326 16.5716 32.8326C16.1511 32.8326 15.7626 32.7625 15.4062 32.6223C15.0538 32.4782 14.7474 32.2699 14.4871 31.9976C14.2308 31.7213 14.0306 31.3808 13.8864 30.9764C13.7422 30.5719 13.6701 30.1073 13.6701 29.5827C13.6701 29.1582 13.7342 28.7617 13.8624 28.3933C13.9945 28.0249 14.1828 27.7065 14.427 27.4382C14.6713 27.1658 14.9697 26.9536 15.3221 26.8014C15.6745 26.6452 16.071 26.5671 16.5115 26.5671C16.876 26.5671 17.2124 26.6292 17.5207 26.7533C17.8331 26.8735 18.1014 27.0497 18.3257 27.282C18.554 27.5102 18.7322 27.7946 18.8603 28.135C18.9885 28.4714 19.0526 28.8558 19.0526 29.2884C19.0526 29.4566 19.0345 29.5687 18.9985 29.6248C18.9624 29.6808 18.8944 29.7089 18.7942 29.7089H14.7274C14.7394 30.0933 14.7915 30.4277 14.8836 30.712C14.9797 30.9964 15.1119 31.2347 15.2801 31.4269C15.4483 31.6151 15.6485 31.7573 15.8808 31.8534C16.1131 31.9455 16.3734 31.9916 16.6617 31.9916C16.93 31.9916 17.1603 31.9615 17.3525 31.9015C17.5488 31.8374 17.717 31.7693 17.8571 31.6972C17.9973 31.6251 18.1134 31.5591 18.2055 31.499C18.3017 31.4349 18.3838 31.4029 18.4518 31.4029C18.5399 31.4029 18.608 31.4369 18.6561 31.505L18.9564 31.8955ZM23.6639 30.0092C23.1713 30.0252 22.7508 30.0653 22.4024 30.1294C22.058 30.1894 21.7756 30.2695 21.5554 30.3696C21.3391 30.4698 21.1809 30.5879 21.0808 30.7241C20.9847 30.8602 20.9366 31.0124 20.9366 31.1806C20.9366 31.3408 20.9627 31.479 21.0147 31.5951C21.0668 31.7112 21.1369 31.8074 21.225 31.8834C21.3171 31.9555 21.4232 32.0096 21.5434 32.0456C21.6675 32.0777 21.7997 32.0937 21.9398 32.0937C22.1281 32.0937 22.3003 32.0757 22.4564 32.0396C22.6126 31.9996 22.7588 31.9435 22.895 31.8714C23.0351 31.7993 23.1673 31.7132 23.2914 31.6131C23.4196 31.513 23.5437 31.3989 23.6639 31.2707V30.0092ZM20.2098 27.5223C20.5462 27.1979 20.9086 26.9556 21.2971 26.7954C21.6855 26.6352 22.116 26.5551 22.5886 26.5551C22.929 26.5551 23.2314 26.6112 23.4957 26.7233C23.76 26.8354 23.9823 26.9916 24.1625 27.1919C24.3427 27.3921 24.4789 27.6344 24.571 27.9187C24.6631 28.2031 24.7091 28.5154 24.7091 28.8558V32.7485H24.2346C24.1304 32.7485 24.0503 32.7325 23.9943 32.7004C23.9382 32.6644 23.8942 32.5963 23.8621 32.4962L23.742 31.9195C23.5818 32.0677 23.4256 32.1998 23.2734 32.316C23.1212 32.4281 22.961 32.5242 22.7928 32.6043C22.6246 32.6804 22.4444 32.7385 22.2522 32.7785C22.064 32.8226 21.8537 32.8446 21.6215 32.8446C21.3852 32.8446 21.1629 32.8126 20.9547 32.7485C20.7464 32.6804 20.5642 32.5803 20.408 32.4481C20.2558 32.316 20.1337 32.1498 20.0416 31.9495C19.9535 31.7453 19.9094 31.505 19.9094 31.2287C19.9094 30.9884 19.9755 30.7581 20.1077 30.5378C20.2398 30.3136 20.4541 30.1153 20.7504 29.9431C21.0468 29.7709 21.4332 29.6308 21.9098 29.5226C22.3864 29.4105 22.9711 29.3464 23.6639 29.3304V28.8558C23.6639 28.3833 23.5618 28.0269 23.3575 27.7866C23.1533 27.5423 22.8549 27.4201 22.4625 27.4201C22.1981 27.4201 21.9759 27.4542 21.7957 27.5223C21.6195 27.5863 21.4653 27.6604 21.3331 27.7445C21.205 27.8246 21.0928 27.8987 20.9967 27.9668C20.9046 28.0309 20.8125 28.0629 20.7204 28.0629C20.6483 28.0629 20.5862 28.0449 20.5342 28.0088C20.4821 27.9688 20.438 27.9207 20.402 27.8647L20.2098 27.5223ZM29.8821 27.6664C29.8341 27.7545 29.76 27.7986 29.6599 27.7986C29.5998 27.7986 29.5317 27.7766 29.4556 27.7325C29.3795 27.6884 29.2854 27.6404 29.1733 27.5883C29.0652 27.5323 28.935 27.4822 28.7828 27.4382C28.6306 27.3901 28.4504 27.3661 28.2422 27.3661C28.062 27.3661 27.8998 27.3901 27.7556 27.4382C27.6114 27.4822 27.4873 27.5443 27.3832 27.6244C27.283 27.7045 27.2049 27.7986 27.1489 27.9067C27.0968 28.0108 27.0708 28.125 27.0708 28.2491C27.0708 28.4053 27.1148 28.5355 27.2029 28.6396C27.2951 28.7437 27.4152 28.8338 27.5634 28.9099C27.7115 28.986 27.8797 29.0541 28.068 29.1141C28.2562 29.1702 28.4484 29.2323 28.6447 29.3004C28.8449 29.3644 29.0391 29.4365 29.2274 29.5166C29.4156 29.5967 29.5838 29.6968 29.732 29.817C29.8801 29.9371 29.9983 30.0853 30.0864 30.2615C30.1785 30.4337 30.2245 30.642 30.2245 30.8863C30.2245 31.1666 30.1745 31.4269 30.0744 31.6672C29.9742 31.9035 29.8261 32.1097 29.6298 32.2859C29.4336 32.4581 29.1933 32.5943 28.909 32.6944C28.6246 32.7945 28.2962 32.8446 27.9238 32.8446C27.4993 32.8446 27.1148 32.7765 26.7704 32.6403C26.426 32.5002 26.1337 32.322 25.8934 32.1057L26.1457 31.6972C26.1777 31.6452 26.2158 31.6051 26.2598 31.5771C26.3039 31.549 26.3599 31.535 26.428 31.535C26.5001 31.535 26.5762 31.5631 26.6563 31.6191C26.7364 31.6752 26.8325 31.7373 26.9446 31.8054C27.0608 31.8734 27.2009 31.9355 27.3651 31.9916C27.5293 32.0476 27.7336 32.0757 27.9779 32.0757C28.1861 32.0757 28.3683 32.0496 28.5245 31.9976C28.6807 31.9415 28.8109 31.8674 28.915 31.7753C29.0191 31.6832 29.0952 31.5771 29.1433 31.4569C29.1953 31.3368 29.2213 31.2086 29.2213 31.0725C29.2213 30.9043 29.1753 30.7661 29.0832 30.658C28.9951 30.5459 28.8769 30.4517 28.7288 30.3756C28.5806 30.2956 28.4104 30.2275 28.2182 30.1714C28.0299 30.1113 27.8357 30.0493 27.6355 29.9852C27.4392 29.9211 27.245 29.849 27.0528 29.7689C26.8645 29.6848 26.6963 29.5807 26.5482 29.4566C26.4 29.3324 26.2798 29.1802 26.1877 29C26.0996 28.8158 26.0556 28.5935 26.0556 28.3332C26.0556 28.1009 26.1036 27.8787 26.1997 27.6664C26.2959 27.4502 26.436 27.2619 26.6203 27.1018C26.8045 26.9376 27.0307 26.8074 27.2991 26.7113C27.5674 26.6152 27.8737 26.5671 28.2182 26.5671C28.6186 26.5671 28.9771 26.6312 29.2934 26.7593C29.6138 26.8835 29.8901 27.0557 30.1224 27.276L29.8821 27.6664ZM45.8528 24.1402L43.1676 32.7485H42.1224L39.9418 26.1827C39.9217 26.1186 39.9017 26.0505 39.8817 25.9784C39.8657 25.9063 39.8477 25.8302 39.8276 25.7501C39.8076 25.8302 39.7876 25.9063 39.7676 25.9784C39.7475 26.0505 39.7275 26.1186 39.7075 26.1827L37.5149 32.7485H36.4696L33.7844 24.1402H34.7516C34.8557 24.1402 34.9418 24.1663 35.0099 24.2183C35.082 24.2704 35.128 24.3365 35.1481 24.4166L36.9262 30.3997C36.9542 30.5078 36.9802 30.6239 37.0043 30.7481C37.0323 30.8722 37.0583 31.0044 37.0824 31.1446C37.1104 31.0044 37.1384 30.8722 37.1665 30.7481C37.1985 30.6199 37.2325 30.5038 37.2686 30.3997L39.293 24.4166C39.317 24.3485 39.3631 24.2864 39.4312 24.2303C39.5032 24.1703 39.5893 24.1402 39.6895 24.1402H40.0259C40.13 24.1402 40.2141 24.1663 40.2782 24.2183C40.3422 24.2704 40.3903 24.3365 40.4223 24.4166L42.4407 30.3997C42.4768 30.5038 42.5088 30.6159 42.5369 30.7361C42.5689 30.8562 42.5989 30.9824 42.627 31.1145C42.647 30.9824 42.669 30.8562 42.693 30.7361C42.7171 30.6159 42.7431 30.5038 42.7711 30.3997L44.5553 24.4166C44.5753 24.3445 44.6193 24.2804 44.6874 24.2243C44.7595 24.1683 44.8456 24.1402 44.9457 24.1402H45.8528ZM50.2743 29.0421C50.2743 28.7938 50.2382 28.5675 50.1661 28.3633C50.098 28.155 49.9959 27.9768 49.8598 27.8286C49.7276 27.6764 49.5654 27.5603 49.3732 27.4802C49.181 27.3961 48.9627 27.3541 48.7184 27.3541C48.2058 27.3541 47.7993 27.5042 47.499 27.8046C47.2026 28.1009 47.0184 28.5134 46.9463 29.0421H50.2743ZM51.1393 31.8955C51.0071 32.0556 50.8489 32.1958 50.6647 32.316C50.4805 32.4321 50.2823 32.5282 50.07 32.6043C49.8618 32.6804 49.6455 32.7365 49.4212 32.7725C49.197 32.8126 48.9747 32.8326 48.7544 32.8326C48.3339 32.8326 47.9455 32.7625 47.5891 32.6223C47.2366 32.4782 46.9303 32.2699 46.67 31.9976C46.4137 31.7213 46.2134 31.3808 46.0692 30.9764C45.9251 30.5719 45.853 30.1073 45.853 29.5827C45.853 29.1582 45.9171 28.7617 46.0452 28.3933C46.1774 28.0249 46.3656 27.7065 46.6099 27.4382C46.8542 27.1658 47.1525 26.9536 47.505 26.8014C47.8574 26.6452 48.2538 26.5671 48.6944 26.5671C49.0588 26.5671 49.3952 26.6292 49.7036 26.7533C50.0159 26.8735 50.2843 27.0497 50.5085 27.282C50.7368 27.5102 50.915 27.7946 51.0432 28.135C51.1713 28.4714 51.2354 28.8558 51.2354 29.2884C51.2354 29.4566 51.2174 29.5687 51.1813 29.6248C51.1453 29.6808 51.0772 29.7089 50.9771 29.7089H46.9102C46.9223 30.0933 46.9743 30.4277 47.0664 30.712C47.1625 30.9964 47.2947 31.2347 47.4629 31.4269C47.6311 31.6151 47.8313 31.7573 48.0636 31.8534C48.2959 31.9455 48.5562 31.9916 48.8446 31.9916C49.1129 31.9916 49.3431 31.9615 49.5354 31.9015C49.7316 31.8374 49.8998 31.7693 50.04 31.6972C50.1801 31.6251 50.2963 31.5591 50.3884 31.499C50.4845 31.4349 50.5666 31.4029 50.6347 31.4029C50.7228 31.4029 50.7909 31.4369 50.8389 31.505L51.1393 31.8955ZM60.2783 25.4858C60.2423 25.5459 60.2022 25.592 60.1582 25.624C60.1181 25.652 60.0681 25.666 60.008 25.666C59.9399 25.666 59.8598 25.632 59.7677 25.5639C59.6756 25.4958 59.5595 25.4218 59.4193 25.3417C59.2831 25.2576 59.1169 25.1815 58.9207 25.1134C58.7285 25.0453 58.4942 25.0113 58.2179 25.0113C57.9576 25.0113 57.7273 25.0473 57.527 25.1194C57.3308 25.1875 57.1646 25.2816 57.0285 25.4017C56.8963 25.5219 56.7962 25.664 56.7281 25.8282C56.66 25.9884 56.626 26.1626 56.626 26.3509C56.626 26.5911 56.684 26.7914 56.8002 26.9516C56.9203 27.1078 57.0765 27.2419 57.2687 27.3541C57.465 27.4662 57.6852 27.5643 57.9295 27.6484C58.1778 27.7285 58.4301 27.8126 58.6864 27.9007C58.9467 27.9888 59.199 28.0889 59.4433 28.2011C59.6916 28.3092 59.9119 28.4474 60.1041 28.6156C60.3003 28.7838 60.4565 28.99 60.5727 29.2343C60.6928 29.4786 60.7529 29.7789 60.7529 30.1354C60.7529 30.5118 60.6888 30.8662 60.5607 31.1986C60.4325 31.527 60.2443 31.8134 59.996 32.0577C59.7517 32.3019 59.4493 32.4942 59.0889 32.6343C58.7325 32.7745 58.326 32.8446 57.8695 32.8446C57.3088 32.8446 56.8002 32.7445 56.3436 32.5442C55.8871 32.34 55.4966 32.0657 55.1722 31.7213L55.5086 31.1686C55.5407 31.1245 55.5787 31.0885 55.6228 31.0605C55.6708 31.0284 55.7229 31.0124 55.779 31.0124C55.831 31.0124 55.8891 31.0344 55.9532 31.0785C56.0213 31.1185 56.0973 31.1706 56.1814 31.2347C56.2655 31.2987 56.3617 31.3688 56.4698 31.4449C56.5779 31.521 56.7001 31.5911 56.8362 31.6552C56.9764 31.7192 57.1346 31.7733 57.3108 31.8174C57.487 31.8574 57.6852 31.8774 57.9055 31.8774C58.1818 31.8774 58.4281 31.8394 58.6444 31.7633C58.8606 31.6872 59.0428 31.5811 59.191 31.4449C59.3432 31.3048 59.4593 31.1386 59.5394 30.9463C59.6195 30.7541 59.6596 30.5398 59.6596 30.3036C59.6596 30.0433 59.5995 29.831 59.4794 29.6668C59.3632 29.4986 59.209 29.3584 59.0168 29.2463C58.8246 29.1342 58.6043 29.0401 58.356 28.964C58.1077 28.8839 57.8554 28.8038 57.5991 28.7237C57.3428 28.6396 57.0905 28.5435 56.8422 28.4353C56.5939 28.3272 56.3737 28.187 56.1814 28.0148C55.9892 27.8426 55.833 27.6284 55.7129 27.3721C55.5967 27.1118 55.5387 26.7914 55.5387 26.4109C55.5387 26.1066 55.5967 25.8122 55.7129 25.5279C55.833 25.2435 56.0052 24.9912 56.2295 24.771C56.4578 24.5507 56.7361 24.3745 57.0645 24.2423C57.3969 24.1102 57.7773 24.0441 58.2059 24.0441C58.6864 24.0441 59.1229 24.1202 59.5154 24.2724C59.9119 24.4246 60.2603 24.6448 60.5607 24.9332L60.2783 25.4858ZM66.1838 29.0421C66.1838 28.7938 66.1478 28.5675 66.0757 28.3633C66.0076 28.155 65.9055 27.9768 65.7693 27.8286C65.6372 27.6764 65.475 27.5603 65.2827 27.4802C65.0905 27.3961 64.8723 27.3541 64.628 27.3541C64.1154 27.3541 63.7089 27.5042 63.4085 27.8046C63.1122 28.1009 62.9279 28.5134 62.8559 29.0421H66.1838ZM67.0488 31.8955C66.9167 32.0556 66.7585 32.1958 66.5743 32.316C66.3901 32.4321 66.1918 32.5282 65.9796 32.6043C65.7713 32.6804 65.5551 32.7365 65.3308 32.7725C65.1065 32.8126 64.8843 32.8326 64.664 32.8326C64.2435 32.8326 63.855 32.7625 63.4986 32.6223C63.1462 32.4782 62.8398 32.2699 62.5795 31.9976C62.3232 31.7213 62.123 31.3808 61.9788 30.9764C61.8346 30.5719 61.7626 30.1073 61.7626 29.5827C61.7626 29.1582 61.8266 28.7617 61.9548 28.3933C62.0869 28.0249 62.2752 27.7065 62.5195 27.4382C62.7637 27.1658 63.0621 26.9536 63.4145 26.8014C63.7669 26.6452 64.1634 26.5671 64.6039 26.5671C64.9684 26.5671 65.3048 26.6292 65.6131 26.7533C65.9255 26.8735 66.1938 27.0497 66.4181 27.282C66.6464 27.5102 66.8246 27.7946 66.9527 28.135C67.0809 28.4714 67.145 28.8558 67.145 29.2884C67.145 29.4566 67.1269 29.5687 67.0909 29.6248C67.0549 29.6808 66.9868 29.7089 66.8867 29.7089H62.8198C62.8318 30.0933 62.8839 30.4277 62.976 30.712C63.0721 30.9964 63.2043 31.2347 63.3725 31.4269C63.5407 31.6151 63.7409 31.7573 63.9732 31.8534C64.2055 31.9455 64.4658 31.9916 64.7541 31.9916C65.0224 31.9916 65.2527 31.9615 65.4449 31.9015C65.6412 31.8374 65.8094 31.7693 65.9495 31.6972C66.0897 31.6251 66.2058 31.5591 66.298 31.499C66.3941 31.4349 66.4762 31.4029 66.5442 31.4029C66.6324 31.4029 66.7004 31.4369 66.7485 31.505L67.0488 31.8955ZM69.4736 27.8827C69.6658 27.4662 69.9021 27.1418 70.1824 26.9095C70.4628 26.6732 70.8052 26.5551 71.2096 26.5551C71.3378 26.5551 71.4599 26.5691 71.5761 26.5972C71.6962 26.6252 71.8023 26.6692 71.8945 26.7293L71.8164 27.5283C71.7923 27.6284 71.7323 27.6784 71.6362 27.6784C71.5801 27.6784 71.498 27.6664 71.3899 27.6424C71.2817 27.6184 71.1596 27.6064 71.0234 27.6064C70.8312 27.6064 70.659 27.6344 70.5068 27.6905C70.3586 27.7465 70.2245 27.8306 70.1043 27.9428C69.9882 28.0509 69.8821 28.187 69.7859 28.3512C69.6938 28.5114 69.6097 28.6956 69.5336 28.9039V32.7485H68.4584V26.6632H69.0711C69.1872 26.6632 69.2673 26.6853 69.3114 26.7293C69.3554 26.7734 69.3855 26.8495 69.4015 26.9576L69.4736 27.8827ZM78.0489 26.6632L75.5679 32.7485H74.6068L72.1258 26.6632H72.9969C73.085 26.6632 73.1571 26.6853 73.2131 26.7293C73.2692 26.7734 73.3072 26.8254 73.3273 26.8855L74.8711 30.8022C74.9192 30.9503 74.9612 31.0945 74.9972 31.2347C75.0333 31.3748 75.0673 31.515 75.0994 31.6552C75.1314 31.515 75.1654 31.3748 75.2015 31.2347C75.2375 31.0945 75.2816 30.9503 75.3336 30.8022L76.8955 26.8855C76.9195 26.8214 76.9596 26.7694 77.0156 26.7293C77.0717 26.6853 77.1378 26.6632 77.2139 26.6632H78.0489ZM82.9381 29.0421C82.9381 28.7938 82.9021 28.5675 82.83 28.3633C82.7619 28.155 82.6598 27.9768 82.5236 27.8286C82.3915 27.6764 82.2293 27.5603 82.0371 27.4802C81.8448 27.3961 81.6266 27.3541 81.3823 27.3541C80.8697 27.3541 80.4632 27.5042 80.1628 27.8046C79.8665 28.1009 79.6823 28.5134 79.6102 29.0421H82.9381ZM83.8032 31.8955C83.671 32.0556 83.5128 32.1958 83.3286 32.316C83.1444 32.4321 82.9461 32.5282 82.7339 32.6043C82.5256 32.6804 82.3094 32.7365 82.0851 32.7725C81.8609 32.8126 81.6386 32.8326 81.4183 32.8326C80.9978 32.8326 80.6094 32.7625 80.2529 32.6223C79.9005 32.4782 79.5942 32.2699 79.3338 31.9976C79.0775 31.7213 78.8773 31.3808 78.7331 30.9764C78.589 30.5719 78.5169 30.1073 78.5169 29.5827C78.5169 29.1582 78.5809 28.7617 78.7091 28.3933C78.8413 28.0249 79.0295 27.7065 79.2738 27.4382C79.5181 27.1658 79.8164 26.9536 80.1688 26.8014C80.5213 26.6452 80.9177 26.5671 81.3583 26.5671C81.7227 26.5671 82.0591 26.6292 82.3675 26.7533C82.6798 26.8735 82.9481 27.0497 83.1724 27.282C83.4007 27.5102 83.5789 27.7946 83.7071 28.135C83.8352 28.4714 83.8993 28.8558 83.8993 29.2884C83.8993 29.4566 83.8813 29.5687 83.8452 29.6248C83.8092 29.6808 83.7411 29.7089 83.641 29.7089H79.5741C79.5861 30.0933 79.6382 30.4277 79.7303 30.712C79.8264 30.9964 79.9586 31.2347 80.1268 31.4269C80.295 31.6151 80.4952 31.7573 80.7275 31.8534C80.9598 31.9455 81.2201 31.9916 81.5084 31.9916C81.7768 31.9916 82.007 31.9615 82.1993 31.9015C82.3955 31.8374 82.5637 31.7693 82.7039 31.6972C82.844 31.6251 82.9602 31.5591 83.0523 31.499C83.1484 31.4349 83.2305 31.4029 83.2986 31.4029C83.3867 31.4029 83.4548 31.4369 83.5028 31.505L83.8032 31.8955Z" fill="black"/>
<defs>
<clipPath id="clip0_2001_76">
<rect width="17.0644" height="17.0644" fill="white" transform="translate(34.4022 0.251465)"/>
</clipPath>
</defs>
</svg>
