<svg width="22" height="22" viewBox="0 0 22 22" fill="none" xmlns="http://www.w3.org/2000/svg">
<path d="M19.3368 16.3078C19.3368 16.6097 19.2697 16.9199 19.1271 17.2218C18.9846 17.5237 18.8001 17.8088 18.5569 18.0771C18.1461 18.5299 17.6933 18.8569 17.1818 19.0665C16.6787 19.2762 16.1336 19.3852 15.5467 19.3852C14.6914 19.3852 13.7774 19.1839 12.8131 18.7731C11.8488 18.3622 10.8846 17.8088 9.92865 17.1128C8.96437 16.4085 8.05039 15.6286 7.17833 14.765C6.31467 13.8929 5.53485 12.9789 4.83889 12.023C4.15131 11.0671 3.59789 10.1112 3.1954 9.16371C2.79292 8.2078 2.59167 7.29383 2.59167 6.42177C2.59167 5.85159 2.6923 5.30655 2.89354 4.80345C3.09478 4.29195 3.41342 3.82239 3.85783 3.40313C4.39448 2.87487 4.98143 2.61493 5.60193 2.61493C5.83672 2.61493 6.0715 2.66524 6.28113 2.76586C6.49914 2.86648 6.692 3.01741 6.84293 3.23543L8.78828 5.97736C8.93921 6.18699 9.04822 6.37985 9.12368 6.56432C9.19915 6.74041 9.24107 6.9165 9.24107 7.07581C9.24107 7.27706 9.18238 7.4783 9.06499 7.67116C8.95598 7.86401 8.79666 8.06526 8.59542 8.2665L7.95815 8.92892C7.86591 9.02116 7.82399 9.13017 7.82399 9.26433C7.82399 9.33141 7.83237 9.39011 7.84915 9.45719C7.8743 9.52427 7.89946 9.57458 7.91623 9.62489C8.06716 9.9016 8.3271 10.2622 8.69604 10.6982C9.07337 11.1342 9.47586 11.5786 9.91188 12.023C10.3647 12.4674 10.8007 12.8783 11.2451 13.2556C11.6811 13.6246 12.0417 13.8761 12.3268 14.0271C12.3687 14.0438 12.419 14.069 12.4777 14.0942C12.5448 14.1193 12.6119 14.1277 12.6874 14.1277C12.8299 14.1277 12.9389 14.0774 13.0311 13.9852L13.6684 13.3563C13.878 13.1466 14.0793 12.9873 14.2721 12.8867C14.465 12.7693 14.6579 12.7106 14.8675 12.7106C15.0268 12.7106 15.1945 12.7442 15.379 12.8196C15.5635 12.8951 15.7563 13.0041 15.9659 13.1466L18.7414 15.1171C18.9594 15.2681 19.1104 15.4442 19.2026 15.6538C19.2864 15.8634 19.3368 16.073 19.3368 16.3078Z" stroke="white" stroke-width="1.67702" stroke-miterlimit="10"/>
<path d="M16.4271 8.48441C16.4271 7.98131 16.033 7.20988 15.446 6.58099C14.9094 6.00242 14.1967 5.54962 13.4923 5.54962" stroke="white" stroke-width="1.67702" stroke-linecap="round" stroke-linejoin="round"/>
<path d="M19.3619 8.48451C19.3619 5.23947 16.7374 2.61493 13.4923 2.61493" stroke="white" stroke-width="1.67702" stroke-linecap="round" stroke-linejoin="round"/>
</svg>
