<svg width="34" height="35" viewBox="0 0 34 35" fill="none" xmlns="http://www.w3.org/2000/svg">
<path d="M10.535 9.49455H11.246V14.4717C11.246 15.2559 11.8838 15.8937 12.6681 15.8937H21.2003C21.9845 15.8937 22.6223 15.2559 22.6223 14.4717V9.49455H23.3333C23.4739 9.49452 23.6114 9.45281 23.7283 9.37468C23.8452 9.29655 23.9363 9.18551 23.9901 9.05561C24.0439 8.92571 24.058 8.78277 24.0305 8.64487C24.0031 8.50696 23.9354 8.38029 23.836 8.28085L17.4369 1.8817C17.3035 1.7484 17.1227 1.67352 16.9342 1.67352C16.7456 1.67352 16.5648 1.7484 16.4315 1.8817L10.0323 8.28085C9.93293 8.38029 9.86523 8.50696 9.83781 8.64487C9.81039 8.78277 9.82447 8.92571 9.87827 9.05561C9.93208 9.18551 10.0232 9.29655 10.1401 9.37468C10.257 9.45281 10.3944 9.49452 10.535 9.49455ZM15.5121 14.4717V10.9166H18.3562V14.4717H15.5121ZM16.9342 3.38977L21.2003 7.65587V10.9166L21.201 14.4717H19.7782V10.9166C19.7782 10.1323 19.1405 9.49455 18.3562 9.49455H15.5121C14.7279 9.49455 14.0901 10.1323 14.0901 10.9166V14.4717H12.6681V7.65587L16.9342 3.38977Z" fill="black"/>
<path d="M8.508 24.1403V32.7485H7.34261V28.8319H2.69908V32.7485H1.5337V24.1403H2.69908V27.9789H7.34261V24.1403H8.508ZM12.8337 26.5672C13.2782 26.5672 13.6787 26.6413 14.0351 26.7894C14.3916 26.9376 14.6959 27.1479 14.9482 27.4202C15.2005 27.6925 15.3928 28.0229 15.5249 28.4114C15.6611 28.7958 15.7292 29.2263 15.7292 29.7029C15.7292 30.1835 15.6611 30.616 15.5249 31.0005C15.3928 31.3849 15.2005 31.7133 14.9482 31.9856C14.6959 32.258 14.3916 32.4682 14.0351 32.6164C13.6787 32.7605 13.2782 32.8326 12.8337 32.8326C12.3852 32.8326 11.9807 32.7605 11.6203 32.6164C11.2638 32.4682 10.9595 32.258 10.7072 31.9856C10.4549 31.7133 10.2606 31.3849 10.1245 31.0005C9.99233 30.616 9.92625 30.1835 9.92625 29.7029C9.92625 29.2263 9.99233 28.7958 10.1245 28.4114C10.2606 28.0229 10.4549 27.6925 10.7072 27.4202C10.9595 27.1479 11.2638 26.9376 11.6203 26.7894C11.9807 26.6413 12.3852 26.5672 12.8337 26.5672ZM12.8337 31.9976C13.4344 31.9976 13.883 31.7974 14.1793 31.3969C14.4757 30.9924 14.6238 30.4298 14.6238 29.7089C14.6238 28.9841 14.4757 28.4194 14.1793 28.0149C13.883 27.6104 13.4344 27.4082 12.8337 27.4082C12.5293 27.4082 12.263 27.4602 12.0348 27.5644C11.8105 27.6685 11.6223 27.8187 11.4701 28.0149C11.3219 28.2111 11.2098 28.4534 11.1337 28.7418C11.0616 29.0261 11.0256 29.3485 11.0256 29.7089C11.0256 30.4298 11.1737 30.9924 11.4701 31.3969C11.7704 31.7974 12.225 31.9976 12.8337 31.9976ZM17.0854 32.7485V26.6633H17.7281C17.8803 26.6633 17.9744 26.7374 18.0105 26.8856L18.0886 27.5103C18.3128 27.234 18.5651 27.0077 18.8455 26.8315C19.1258 26.6553 19.4502 26.5672 19.8186 26.5672C20.2271 26.5672 20.5575 26.6813 20.8098 26.9096C21.0661 27.1379 21.2503 27.4462 21.3625 27.8347C21.4506 27.6144 21.5627 27.4242 21.6989 27.264C21.839 27.1038 21.9952 26.9717 22.1674 26.8675C22.3396 26.7634 22.5218 26.6873 22.7141 26.6393C22.9103 26.5912 23.1085 26.5672 23.3088 26.5672C23.6292 26.5672 23.9135 26.6192 24.1618 26.7234C24.4141 26.8235 24.6263 26.9717 24.7985 27.1679C24.9748 27.3641 25.1089 27.6064 25.201 27.8948C25.2931 28.1791 25.3392 28.5055 25.3392 28.8739V32.7485H24.2639V28.8739C24.2639 28.3974 24.1598 28.0369 23.9515 27.7926C23.7433 27.5443 23.4429 27.4202 23.0505 27.4202C22.8743 27.4202 22.7061 27.4522 22.5459 27.5163C22.3897 27.5764 22.2515 27.6665 22.1314 27.7866C22.0112 27.9068 21.9151 28.059 21.843 28.2432C21.7749 28.4234 21.7409 28.6336 21.7409 28.8739V32.7485H20.6656V28.8739C20.6656 28.3853 20.5675 28.0209 20.3713 27.7806C20.175 27.5403 19.8887 27.4202 19.5123 27.4202C19.2479 27.4202 19.0036 27.4923 18.7794 27.6364C18.5551 27.7766 18.3489 27.9688 18.1606 28.2131V32.7485H17.0854ZM31.0372 29.0421C31.0372 28.7938 31.0011 28.5676 30.929 28.3633C30.861 28.1551 30.7588 27.9769 30.6227 27.8287C30.4905 27.6765 30.3283 27.5604 30.1361 27.4803C29.9439 27.3962 29.7256 27.3541 29.4813 27.3541C28.9687 27.3541 28.5622 27.5043 28.2619 27.8046C27.9655 28.101 27.7813 28.5135 27.7092 29.0421H31.0372ZM31.9022 31.8955C31.77 32.0557 31.6118 32.1959 31.4276 32.316C31.2434 32.4322 31.0452 32.5283 30.8329 32.6044C30.6247 32.6805 30.4084 32.7365 30.1841 32.7726C29.9599 32.8126 29.7376 32.8326 29.5174 32.8326C29.0969 32.8326 28.7084 32.7626 28.352 32.6224C27.9995 32.4782 27.6932 32.27 27.4329 31.9976C27.1766 31.7213 26.9763 31.3809 26.8322 30.9764C26.688 30.5719 26.6159 30.1074 26.6159 29.5828C26.6159 29.1583 26.68 28.7618 26.8081 28.3934C26.9403 28.0249 27.1285 27.7065 27.3728 27.4382C27.6171 27.1659 27.9154 26.9536 28.2679 26.8015C28.6203 26.6453 29.0168 26.5672 29.4573 26.5672C29.8217 26.5672 30.1581 26.6292 30.4665 26.7534C30.7789 26.8735 31.0472 27.0498 31.2714 27.282C31.4997 27.5103 31.6779 27.7946 31.8061 28.135C31.9342 28.4714 31.9983 28.8559 31.9983 29.2884C31.9983 29.4566 31.9803 29.5687 31.9442 29.6248C31.9082 29.6809 31.8401 29.7089 31.74 29.7089H27.6732C27.6852 30.0934 27.7372 30.4278 27.8293 30.7121C27.9255 30.9964 28.0576 31.2347 28.2258 31.427C28.394 31.6152 28.5943 31.7574 28.8265 31.8535C29.0588 31.9456 29.3191 31.9916 29.6075 31.9916C29.8758 31.9916 30.1061 31.9616 30.2983 31.9015C30.4945 31.8375 30.6627 31.7694 30.8029 31.6973C30.9431 31.6252 31.0592 31.5591 31.1513 31.499C31.2474 31.435 31.3295 31.4029 31.3976 31.4029C31.4857 31.4029 31.5538 31.437 31.6018 31.5051L31.9022 31.8955Z" fill="black"/>
</svg>
