<svg width="20" height="20" viewBox="0 0 20 20" fill="none" xmlns="http://www.w3.org/2000/svg">
<path d="M6.92773 1.71455C5.41804 1.72797 3.9157 1.94297 2.53935 2.28167C2.92543 2.8655 3.57857 3.31248 4.33315 3.61522C5.23774 3.97812 6.27314 4.12519 7.04726 4.08564C7.84383 4.04491 8.87423 3.72136 9.67742 3.28211C10.079 3.06248 10.4249 2.81375 10.6586 2.5745C10.7825 2.44763 10.8696 2.32642 10.9259 2.21817C9.74504 1.88242 8.48963 1.7261 7.22975 1.71455C7.12908 1.71364 7.0284 1.71364 6.92773 1.71455ZM11.1941 3.01031C11.1798 3.02546 11.1656 3.04064 11.151 3.0556C10.8493 3.36446 10.4537 3.64234 10.0078 3.88617C9.11607 4.37385 8.02758 4.7249 7.08237 4.77321C6.19396 4.81865 5.08738 4.65972 4.07677 4.25424C3.38469 3.97656 2.73082 3.57911 2.24992 3.03513C1.62588 8.05773 1.07215 13.6539 1.86265 18.2378C2.61225 18.4735 3.43055 18.6518 4.27264 18.7714V16.3249H6.72058V13.8769H10.9263C10.9254 13.7617 10.9321 13.6362 10.9449 13.4956C10.9816 13.0922 11.068 12.5769 11.1873 12.0036C11.3942 11.0104 11.7003 9.8495 12.0268 8.86138C11.8375 6.98209 11.5627 5.00297 11.1941 3.01031ZM17.034 3.03288C16.9992 3.03295 16.9602 3.03697 16.9242 3.03812L14.746 5.76451C15.0402 5.85902 15.3043 6.04705 15.4972 6.30198L17.6111 3.77583C17.6456 3.69703 17.6469 3.47699 17.528 3.30563C17.4349 3.17157 17.2997 3.05908 17.067 3.03437C17.0566 3.03332 17.0456 3.03283 17.034 3.03288ZM14.3755 6.38892C14.3104 6.46775 14.2554 6.55442 14.2118 6.64691C14.0646 6.96285 14.039 7.29982 14.0659 7.58822L14.0667 7.59679L14.2009 8.53037C14.1311 8.53689 14.0615 8.54436 13.992 8.55278C13.5656 8.60488 13.0973 8.70138 12.7755 8.80527C12.4265 9.8116 12.0823 11.0831 11.8614 12.144C11.7453 12.701 11.6632 13.2 11.6306 13.5579C11.6203 13.6706 11.6234 13.7361 11.6228 13.8153C11.7122 13.7693 11.8159 13.7109 11.9413 13.629C12.3113 13.3874 12.8019 13.0086 13.3232 12.5747C14.2999 11.7615 15.3774 10.7617 16.077 10.0573C15.963 9.76566 15.7629 9.43599 15.5434 9.15781C15.2878 8.83388 14.9892 8.57856 14.9111 8.53022C14.909 8.53052 14.9011 8.52922 14.8962 8.52869L14.7515 7.52186C14.7343 7.33406 14.7605 7.09944 14.8359 6.9378C14.8732 6.85778 14.9128 6.79524 14.9682 6.74842C14.8211 6.54257 14.5962 6.40824 14.3755 6.38892ZM14.7529 12.1175V13.8769H18.9603V12.1175H14.7529ZM7.40906 14.5654V16.3249H11.6165V14.5654H7.40906ZM12.3049 14.5654V16.3249H16.5123V14.5654H12.3049ZM17.2008 14.5654V16.3249H18.9603V14.5654H17.2008ZM4.96112 17.0134V18.7728H9.16851V17.0134H4.96112ZM9.857 17.0134V18.7728H14.0644V17.0134H9.857ZM14.7529 17.0134V18.7728H18.9603V17.0134H14.7529Z" fill="#3F7E00"/>
</svg>
