<svg width="20" height="20" viewBox="0 0 20 20" fill="none" xmlns="http://www.w3.org/2000/svg">
<path d="M16.3623 2.62042C16.8487 2.59105 17.2436 2.98925 17.2436 3.47639C17.2436 3.96353 16.8478 4.35601 16.3623 4.38947C13.2408 4.60297 10.3021 5.93946 8.08956 8.15182C5.87704 10.3642 4.54036 13.3028 4.32664 16.4243C4.294 16.9107 3.90233 17.3056 3.41438 17.3056C2.92642 17.3056 2.52904 16.9107 2.5576 16.4243C2.7732 12.8336 4.29686 9.44631 6.84053 6.90279C9.3842 4.35927 12.7716 2.83581 16.3623 2.62042ZM11.5619 16.5068L11.5636 16.4994C11.738 15.2685 12.3076 14.1275 13.1866 13.2484C14.0656 12.3692 15.2065 11.7994 16.4374 11.6248L16.4456 11.6239C16.5027 11.6158 16.5582 11.6022 16.612 11.5831C16.9719 11.464 17.2444 11.145 17.2444 10.759C17.2444 10.3118 16.8805 9.94465 16.4366 9.99443C16.3111 10.0081 16.1859 10.0249 16.0612 10.045C14.8244 10.2468 13.6596 10.761 12.6772 11.539C11.6947 12.3169 10.9272 13.3328 10.4473 14.4905C10.1817 15.1319 10.0083 15.8077 9.93242 16.4978C9.88346 16.9425 10.2507 17.3056 10.697 17.3056C11.0838 17.3056 11.402 17.0339 11.5219 16.674C11.5399 16.6196 11.5527 16.5639 11.5619 16.5068ZM16.1689 7.75783C16.5253 7.71703 16.8835 7.6969 17.2436 7.69745V6.47103C16.8378 6.47103 16.4336 6.49388 16.031 6.53957L16.1689 7.75783Z" fill="#3F7E00"/>
<path d="M13.5684 8.42776C13.9019 8.29067 14.2408 8.17235 14.5851 8.07281L14.2457 6.89453C13.4665 7.1191 12.7149 7.4303 12.005 7.8223L12.5982 8.89613C12.9126 8.72205 13.2363 8.5662 13.5692 8.42857M10.453 10.5101C10.7076 10.2555 10.9752 10.0162 11.2559 9.79207L10.4913 8.83411C9.85761 9.34 9.28256 9.91532 8.77698 10.5493L9.73494 11.3139C9.95851 11.0326 10.1979 10.7647 10.453 10.5101ZM8.37144 13.6255C8.50906 13.2932 8.66464 12.97 8.83818 12.6562L7.76516 12.0629C7.37316 12.7728 7.06197 13.5244 6.8374 14.3036L8.01567 14.6431C8.11467 14.2976 8.23299 13.9587 8.37062 13.6264M7.6395 17.3015C7.6395 16.9414 7.6599 16.5829 7.7007 16.2261L6.48081 16.0898C6.43566 16.4918 6.41309 16.896 6.41309 17.3023L7.6395 17.3015Z" fill="#3F7E00"/>
</svg>
