<svg width="21" height="20" viewBox="0 0 21 20" fill="none" xmlns="http://www.w3.org/2000/svg">
<g clip-path="url(#clip0_53_349)">
<path d="M5.21881 1.82636C6.41585 1.39145 8.14164 0.961426 10.2917 0.961426C12.4419 0.961426 14.1676 1.39145 15.3647 1.82636C15.8396 1.9968 16.3028 2.19852 16.751 2.43019C16.9235 2.52028 17.0922 2.61718 17.2569 2.72068L17.2659 2.72639L17.27 2.72884L17.2708 2.72965L17.2724 2.73047L17.6356 2.97281V16.465H18.4515V18.097H2.13196V16.465H2.94794V2.97281L3.31105 2.73047L3.31268 2.72965L3.3135 2.72884L3.31758 2.72639L3.32655 2.72068C3.37 2.69179 3.41435 2.66431 3.45956 2.63826C3.54714 2.58495 3.67144 2.51587 3.83246 2.431C4.15477 2.26291 4.62069 2.04423 5.21962 1.82718M4.5799 3.88263V16.465H6.21185V6.26529H7.84381V7.89725H9.47577V6.26529H11.1077V16.465H16.0036V3.88181L15.9954 3.87773C15.7311 3.73902 15.3304 3.55134 14.8066 3.3604C13.7597 2.97934 12.2215 2.59338 10.2917 2.59338C8.36196 2.59338 6.82384 2.97934 5.77694 3.3604C5.36677 3.50738 4.96686 3.68239 4.5799 3.88263ZM7.84381 9.52921V10.7532H9.47577V9.52921H7.84381ZM9.47577 12.3851H7.84381V13.6091H9.47577V12.3851ZM9.47577 15.2411H7.84381V16.465H9.47577V15.2411Z" fill="#3F7E00"/>
</g>
<defs>
<clipPath id="clip0_53_349">
<rect width="19.5835" height="19.5835" fill="white" transform="translate(0.5 0.145508)"/>
</clipPath>
</defs>
</svg>
