<svg width="20" height="20" viewBox="0 0 20 20" fill="none" xmlns="http://www.w3.org/2000/svg">
<path d="M17.7581 12.0751H17.1053V8.15835H17.7581C17.9312 8.15835 18.0973 8.08958 18.2197 7.96716C18.3421 7.84474 18.4109 7.6787 18.4109 7.50557C18.4109 7.33244 18.3421 7.1664 18.2197 7.04398C18.0973 6.92156 17.9312 6.85279 17.7581 6.85279H17.1053V4.24165L16.7319 3.49357C16.7033 3.4462 16.663 3.4069 16.615 3.37938C16.5669 3.35185 16.5127 3.337 16.4573 3.33621C16.402 3.33543 16.3473 3.34874 16.2985 3.3749C16.2497 3.40106 16.2084 3.4392 16.1784 3.48573L15.7998 4.24165V6.85279H14.4942V4.24165L14.1208 3.49357C14.0921 3.4462 14.0519 3.4069 14.0039 3.37938C13.9558 3.35185 13.9016 3.337 13.8462 3.33621C13.7908 3.33543 13.7362 3.34874 13.6874 3.3749C13.6386 3.40106 13.5972 3.4392 13.5673 3.48573L13.1886 4.24165V6.85279H11.8831V4.24165L11.5097 3.49357C11.481 3.4462 11.4408 3.4069 11.3927 3.37938C11.3447 3.35185 11.2904 3.337 11.2351 3.33621C11.1797 3.33543 11.1251 3.34874 11.0763 3.3749C11.0275 3.40106 10.9861 3.4392 10.9561 3.48573L10.5775 4.24165V6.85279H9.27194V4.24165L8.89855 3.49357C8.86988 3.4462 8.82963 3.4069 8.78159 3.37938C8.73355 3.35185 8.6793 3.337 8.62394 3.33621C8.56857 3.33543 8.51392 3.34874 8.46512 3.3749C8.41633 3.40106 8.37498 3.4392 8.34498 3.48573L7.96637 4.24165V6.85279H6.6608V4.24165L6.28741 3.49357C6.25874 3.4462 6.21849 3.4069 6.17046 3.37938C6.12242 3.35185 6.06816 3.337 6.0128 3.33621C5.95744 3.33543 5.90279 3.34874 5.85399 3.3749C5.80519 3.40106 5.76385 3.4392 5.73385 3.48573L5.35524 4.24165V6.85279H4.04967V4.24165L3.67628 3.49357C3.64761 3.4462 3.60736 3.4069 3.55932 3.37938C3.51128 3.35185 3.45703 3.337 3.40167 3.33621C3.34631 3.33543 3.29166 3.34874 3.24286 3.3749C3.19406 3.40106 3.15272 3.4392 3.12272 3.48573L2.7441 4.24165V6.85279H2.09132C1.91819 6.85279 1.75215 6.92156 1.62973 7.04398C1.50731 7.1664 1.43854 7.33244 1.43854 7.50557C1.43854 7.6787 1.50731 7.84474 1.62973 7.96716C1.75215 8.08958 1.91819 8.15835 2.09132 8.15835H2.7441V12.0751H2.09132C1.91819 12.0751 1.75215 12.1438 1.62973 12.2662C1.50731 12.3887 1.43854 12.5547 1.43854 12.7278C1.43854 12.901 1.50731 13.067 1.62973 13.1894C1.75215 13.3118 1.91819 13.3806 2.09132 13.3806H2.7441V15.339C2.7441 15.5121 2.81288 15.6781 2.9353 15.8006C3.05772 15.923 3.22376 15.9918 3.39689 15.9918C3.57002 15.9918 3.73605 15.923 3.85847 15.8006C3.9809 15.6781 4.04967 15.5121 4.04967 15.339V13.3806H5.35524V15.339C5.35524 15.5121 5.42401 15.6781 5.54643 15.8006C5.66885 15.923 5.83489 15.9918 6.00802 15.9918C6.18115 15.9918 6.34719 15.923 6.46961 15.8006C6.59203 15.6781 6.6608 15.5121 6.6608 15.339V13.3806H7.96637V15.339C7.96637 15.5121 8.03515 15.6781 8.15757 15.8006C8.27999 15.923 8.44602 15.9918 8.61915 15.9918C8.79228 15.9918 8.95832 15.923 9.08074 15.8006C9.20316 15.6781 9.27194 15.5121 9.27194 15.339V13.3806H10.5775V15.339C10.5775 15.5121 10.6463 15.6781 10.7687 15.8006C10.8911 15.923 11.0572 15.9918 11.2303 15.9918C11.4034 15.9918 11.5695 15.923 11.6919 15.8006C11.8143 15.6781 11.8831 15.5121 11.8831 15.339V13.3806H13.1886V15.339C13.1886 15.5121 13.2574 15.6781 13.3798 15.8006C13.5023 15.923 13.6683 15.9918 13.8414 15.9918C14.0145 15.9918 14.1806 15.923 14.303 15.8006C14.4254 15.6781 14.4942 15.5121 14.4942 15.339V13.3806H15.7998V15.339C15.7998 15.5121 15.8685 15.6781 15.991 15.8006C16.1134 15.923 16.2794 15.9918 16.4526 15.9918C16.6257 15.9918 16.7917 15.923 16.9141 15.8006C17.0366 15.6781 17.1053 15.5121 17.1053 15.339V13.3806H17.7581C17.9312 13.3806 18.0973 13.3118 18.2197 13.1894C18.3421 13.067 18.4109 12.901 18.4109 12.7278C18.4109 12.5547 18.3421 12.3887 18.2197 12.2662C18.0973 12.1438 17.9312 12.0751 17.7581 12.0751ZM4.04967 12.0751V8.15835H5.35524V12.0751H4.04967ZM6.6608 12.0751V8.15835H7.96637V12.0751H6.6608ZM9.27194 12.0751V8.15835H10.5775V12.0751H9.27194ZM11.8831 12.0751V8.15835H13.1886V12.0751H11.8831ZM14.4942 12.0751V8.15835H15.7998V12.0751H14.4942Z" fill="#3F7E00"/>
</svg>
