<svg width="20" height="21" viewBox="0 0 20 21" fill="none" xmlns="http://www.w3.org/2000/svg">
<g clip-path="url(#clip0_53_330)">
<path d="M18.9877 4.62963C18.979 4.47991 18.9155 4.33862 18.8095 4.23257C18.7035 4.12652 18.5622 4.06311 18.4124 4.05436C14.4529 3.82487 11.2736 5.02895 9.90739 7.28411C9.00471 8.77506 9.00624 10.5858 9.89515 12.3131C9.38911 12.9154 9.01933 13.6199 8.81117 14.3785L7.56655 13.1293C8.16476 11.8801 8.14181 10.5781 7.49005 9.49643C6.48028 7.82954 4.14938 6.93605 1.25546 7.10587C1.10574 7.11461 0.964447 7.17803 0.8584 7.28408C0.752353 7.39012 0.688939 7.53142 0.680195 7.68114C0.509605 10.5751 1.40387 12.906 3.07076 13.9157C3.6208 14.2519 4.25291 14.4298 4.89753 14.4298C5.5232 14.422 6.13913 14.2738 6.69983 13.996L8.61228 15.9085V18.1017C8.61228 18.264 8.67675 18.4197 8.79152 18.5344C8.90629 18.6492 9.06195 18.7137 9.22426 18.7137C9.38657 18.7137 9.54223 18.6492 9.657 18.5344C9.77177 18.4197 9.83624 18.264 9.83624 18.1017V15.8458C9.83346 14.8722 10.1648 13.9271 10.7749 13.1683C11.562 13.5797 12.435 13.7999 13.323 13.8109C14.1816 13.8137 15.0243 13.5791 15.758 13.1332C18.0131 11.7684 19.2203 8.58917 18.9877 4.62963ZM3.70187 12.8692C2.52839 12.1586 1.86438 10.4764 1.88045 8.30995C4.04687 8.29159 5.72906 8.95789 6.43973 10.1314C6.81075 10.7434 6.87118 11.4571 6.62792 12.1922L4.7606 10.3249C4.6449 10.215 4.49083 10.1546 4.33125 10.1566C4.17167 10.1587 4.0192 10.223 3.90634 10.3358C3.79349 10.4487 3.72919 10.6012 3.72715 10.7607C3.72511 10.9203 3.78548 11.0744 3.89541 11.1901L5.76272 13.0574C5.02758 13.3007 4.31462 13.2402 3.70187 12.8692ZM15.1238 12.0874C14.0987 12.7078 12.8939 12.7553 11.6699 12.2404L15.7771 8.13247C15.887 8.01677 15.9474 7.8627 15.9453 7.70312C15.9433 7.54354 15.879 7.39107 15.7661 7.27822C15.6533 7.16537 15.5008 7.10107 15.3412 7.09902C15.1817 7.09698 15.0276 7.15736 14.9119 7.26728L10.8039 11.3699C10.2868 10.1459 10.3335 8.94029 10.9569 7.91599C12.0233 6.15653 14.5523 5.17583 17.7905 5.25156C17.8639 8.48896 16.8848 11.021 15.1238 12.0874Z" fill="#3F7E00"/>
</g>
<defs>
<clipPath id="clip0_53_330">
<rect width="19.5835" height="19.5835" fill="white" transform="translate(0.0445557 0.966064)"/>
</clipPath>
</defs>
</svg>
