<svg width="21" height="20" viewBox="0 0 21 20" fill="none" xmlns="http://www.w3.org/2000/svg">
<path d="M6.87315 17.2811C6.35636 17.2811 5.91438 17.0943 5.54718 16.7206C5.17999 16.3468 4.9964 15.9013 4.9964 15.384V7.81577L3.50724 4.22546H1.73248V2.59351H4.60881L5.95517 5.85742H18.0113C18.3241 5.85742 18.562 5.98662 18.7252 6.24501C18.8884 6.50341 18.8952 6.7686 18.7456 7.04059L16.4201 11.5897C17.1137 11.6985 17.6952 12.0181 18.1647 12.5484C18.6341 13.0788 18.8686 13.7044 18.868 14.4252C18.868 15.214 18.5928 15.8872 18.0423 16.4447C17.4918 17.0023 16.8218 17.2811 16.0325 17.2811C15.2301 17.2811 14.5537 17.0023 14.0032 16.4447C13.4527 15.8872 13.1771 15.214 13.1766 14.4252C13.1766 14.1532 13.2106 13.9016 13.2786 13.6704C13.3466 13.4392 13.4418 13.2148 13.5642 12.9972L10.8918 12.7524L8.44391 16.4244C8.26712 16.6963 8.03946 16.9071 7.76094 17.0567C7.48241 17.2063 7.18649 17.2811 6.87315 17.2811ZM14.6658 11.4673L16.6853 7.48938H6.62836L7.64833 9.93732C7.75713 10.2093 7.93066 10.4372 8.16892 10.6211C8.40719 10.805 8.68245 10.9102 8.9947 10.9369L14.6658 11.4673ZM6.89355 15.6288C6.92075 15.6288 6.98195 15.5948 7.07715 15.5268L9.05589 12.5892C8.38951 12.5213 7.86593 12.3616 7.48514 12.1103C7.10434 11.8589 6.81875 11.597 6.62836 11.3245V15.4044C6.62836 15.4724 6.65556 15.5268 6.70995 15.5676C6.76435 15.6084 6.82555 15.6288 6.89355 15.6288ZM16.0121 15.6492C16.3657 15.6492 16.6581 15.5303 16.8893 15.2926C17.1205 15.0549 17.2361 14.7657 17.2361 14.4252C17.2361 14.0716 17.1205 13.7792 16.8893 13.548C16.6581 13.3168 16.3657 13.2012 16.0121 13.2012C15.6721 13.2012 15.3833 13.3168 15.1455 13.548C14.9078 13.7792 14.7887 14.0716 14.7881 14.4252C14.7881 14.7652 14.9073 15.0543 15.1455 15.2926C15.3838 15.5309 15.6727 15.6497 16.0121 15.6492Z" fill="#3F7E00"/>
</svg>
