<svg width="20" height="20" viewBox="0 0 20 20" fill="none" xmlns="http://www.w3.org/2000/svg">
<g clip-path="url(#clip0_53_373)">
<path d="M5.47432 19.7127H5.46198C5.03016 19.7127 4.60344 19.6156 4.19395 19.4679C4.0361 19.411 3.88159 19.3322 3.73471 19.2555C3.49501 19.1303 3.40199 18.8291 3.52693 18.5894C3.65188 18.3497 3.94778 18.254 4.18748 18.3789C4.29578 18.4353 4.40976 18.4841 4.52667 18.5262C4.82659 18.6348 5.14318 18.6903 5.46217 18.6901C5.73262 18.6901 5.95803 18.931 5.95803 19.2014C5.95803 19.4719 5.74476 19.7127 5.47432 19.7127ZM6.97422 19.294C6.86471 19.2942 6.7583 19.2577 6.67201 19.1902C6.58572 19.1228 6.52452 19.0284 6.4982 18.9221C6.47188 18.8158 6.48196 18.7038 6.52682 18.6039C6.57168 18.504 6.64874 18.422 6.74568 18.3711C7.13809 18.1642 7.47489 17.8659 7.72759 17.5014C7.76411 17.4484 7.8107 17.4032 7.86469 17.3683C7.91868 17.3334 7.97903 17.3094 8.04227 17.2978C8.10552 17.2862 8.17043 17.2872 8.23331 17.3007C8.29618 17.3142 8.35578 17.3399 8.40871 17.3764C8.46163 17.4129 8.50685 17.4595 8.54177 17.5135C8.57669 17.5675 8.60064 17.6279 8.61224 17.6911C8.62384 17.7544 8.62288 17.8193 8.60939 17.8821C8.59591 17.945 8.57017 18.0046 8.53365 18.0575C8.19117 18.5522 7.73443 18.9569 7.20217 19.2374C7.1319 19.2745 7.05367 19.2939 6.97422 19.294ZM2.80156 18.2786C2.7225 18.2787 2.64459 18.2596 2.57451 18.223C2.50443 18.1864 2.44425 18.1334 2.39912 18.0685C2.05637 17.5746 1.83704 17.0057 1.75952 16.4096C1.74681 16.2827 1.78407 16.1559 1.86338 16.0561C1.9427 15.9562 2.05782 15.8913 2.18427 15.875C2.31073 15.8587 2.43855 15.8924 2.54058 15.9688C2.64261 16.0453 2.7108 16.1585 2.73067 16.2844C2.78812 16.7247 2.95016 17.1448 3.20322 17.5096C3.25432 17.583 3.28433 17.669 3.29 17.7582C3.29568 17.8475 3.27679 17.9365 3.23539 18.0158C3.19399 18.0951 3.13167 18.1615 3.05518 18.2078C2.9787 18.2541 2.89098 18.2786 2.80156 18.2786ZM8.75788 16.8461C8.67926 16.8461 8.60181 16.8272 8.53205 16.7909C8.4623 16.7546 8.40231 16.7021 8.35715 16.6378C8.31198 16.5734 8.28298 16.4991 8.2726 16.4212C8.26221 16.3433 8.27074 16.264 8.29747 16.1901L8.82779 14.7223C8.849 14.661 8.88218 14.6045 8.92539 14.5562C8.9686 14.5078 9.02099 14.4685 9.07952 14.4406C9.13804 14.4126 9.20153 14.3966 9.26631 14.3934C9.33108 14.3902 9.39584 14.3999 9.45683 14.4219C9.51783 14.444 9.57383 14.4779 9.6216 14.5218C9.66937 14.5656 9.70795 14.6186 9.73509 14.6775C9.76224 14.7364 9.77741 14.8001 9.77973 14.8649C9.78205 14.9297 9.77147 14.9943 9.74861 15.055L9.21829 16.5228C9.1841 16.6175 9.12155 16.6993 9.03916 16.7572C8.95678 16.815 8.85855 16.8461 8.75788 16.8461ZM2.42047 15.3014C2.34185 15.3014 2.26439 15.2824 2.19464 15.2462C2.12488 15.2099 2.06489 15.1574 2.01973 15.093C1.97457 15.0287 1.94557 14.9544 1.93518 14.8765C1.9248 14.7985 1.93333 14.7192 1.96006 14.6453L2.49038 13.1775C2.51159 13.1162 2.54476 13.0598 2.58798 13.0114C2.63119 12.9631 2.68358 12.9238 2.7421 12.8958C2.80062 12.8679 2.86412 12.8519 2.92889 12.8487C2.99366 12.8455 3.05843 12.8552 3.11942 12.8772C3.18041 12.8992 3.23642 12.9332 3.28419 12.977C3.33195 13.0209 3.37053 13.0738 3.39768 13.1327C3.42482 13.1916 3.44 13.2553 3.44232 13.3201C3.44464 13.3849 3.43406 13.4496 3.41119 13.5103L2.88087 14.978C2.84668 15.0727 2.78414 15.1546 2.70175 15.2124C2.61936 15.2703 2.52114 15.3013 2.42047 15.3014ZM9.81852 13.9105C9.73991 13.9105 9.66245 13.8916 9.59269 13.8553C9.52294 13.8191 9.46295 13.7665 9.41779 13.7022C9.37263 13.6378 9.34363 13.5636 9.33324 13.4856C9.32285 13.4077 9.33139 13.3284 9.35812 13.2545L9.88844 11.7867C9.93256 11.6646 10.0234 11.565 10.141 11.5098C10.2585 11.4546 10.3932 11.4484 10.5153 11.4926C10.6374 11.5367 10.737 11.6275 10.7922 11.7451C10.8474 11.8626 10.8536 11.9973 10.8094 12.1194L10.2789 13.5872C10.2447 13.6819 10.1822 13.7638 10.0998 13.8216C10.0174 13.8795 9.9192 13.9105 9.81852 13.9105ZM3.48111 12.3656C3.40249 12.3656 3.32503 12.3467 3.25528 12.3104C3.18553 12.2741 3.12553 12.2216 3.08037 12.1572C3.03521 12.0929 3.00621 12.0186 2.99582 11.9407C2.98544 11.8628 2.99397 11.7835 3.0207 11.7095L3.55102 10.2418C3.57256 10.1809 3.60593 10.1249 3.6492 10.0769C3.69248 10.029 3.74482 9.99011 3.80319 9.96249C3.86156 9.93487 3.92483 9.91907 3.98933 9.916C4.05384 9.91294 4.11831 9.92266 4.17904 9.94462C4.23977 9.96658 4.29556 10.0003 4.34319 10.0439C4.39082 10.0876 4.42935 10.1402 4.45657 10.1987C4.48378 10.2573 4.49914 10.3206 4.50176 10.3852C4.50438 10.4497 4.49421 10.5141 4.47184 10.5747L3.94152 12.0425C3.90729 12.1371 3.84473 12.2189 3.76235 12.2767C3.67996 12.3346 3.58176 12.3656 3.48111 12.3656ZM11.0119 11.087C10.9035 11.0871 10.7982 11.0513 10.7123 10.985C10.6265 10.9188 10.5651 10.826 10.5377 10.7211C10.5103 10.6163 10.5185 10.5053 10.561 10.4055C10.6035 10.3058 10.6778 10.223 10.7724 10.1701L12.1345 9.40829C12.1906 9.3769 12.2523 9.35687 12.3162 9.34935C12.38 9.34183 12.4448 9.34695 12.5066 9.36444C12.5685 9.38192 12.6263 9.41142 12.6768 9.45125C12.7273 9.49109 12.7694 9.54047 12.8008 9.59659C12.8322 9.6527 12.8522 9.71445 12.8597 9.77831C12.8673 9.84216 12.8621 9.90687 12.8447 9.96875C12.8272 10.0306 12.7977 10.0884 12.7578 10.1389C12.718 10.1894 12.6686 10.2315 12.6125 10.2629L11.2505 11.0247C11.1776 11.0655 11.0955 11.0869 11.0119 11.087ZM13.736 9.56339C13.6276 9.56351 13.5222 9.52766 13.4364 9.46145C13.3506 9.39524 13.2892 9.30242 13.2618 9.19754C13.2344 9.09266 13.2426 8.98166 13.285 8.88193C13.3275 8.78221 13.4019 8.6994 13.4965 8.64649L14.8585 7.8845C14.9717 7.82344 15.1043 7.80932 15.2277 7.84521C15.3512 7.8811 15.4556 7.9641 15.5183 8.07629C15.5811 8.18849 15.5972 8.32087 15.5632 8.44485C15.5292 8.56883 15.4478 8.67446 15.3366 8.73893L13.9745 9.50092C13.9017 9.54175 13.8195 9.56326 13.736 9.56339ZM4.54195 9.43003C4.46333 9.43003 4.38587 9.41109 4.31612 9.37483C4.24636 9.33856 4.18637 9.28603 4.14121 9.22168C4.09605 9.15733 4.06705 9.08305 4.05666 9.00512C4.04628 8.9272 4.05481 8.84791 4.08154 8.77398L4.61186 7.3062C4.6334 7.24532 4.66676 7.1893 4.71004 7.14137C4.75332 7.09344 4.80565 7.05454 4.86403 7.02692C4.9224 6.9993 4.98566 6.9835 5.05017 6.98044C5.11468 6.97737 5.17915 6.9871 5.23988 7.00905C5.30061 7.03101 5.3564 7.06477 5.40403 7.10838C5.45166 7.15198 5.49019 7.20459 5.51741 7.26315C5.54462 7.32171 5.55998 7.38508 5.5626 7.44961C5.56522 7.51413 5.55505 7.57854 5.53267 7.63912L5.00235 9.1069C4.96813 9.20155 4.90557 9.28336 4.82318 9.34118C4.7408 9.399 4.6426 9.43003 4.54195 9.43003ZM16.4605 8.0398C16.3521 8.03992 16.2467 8.00406 16.1609 7.93785C16.075 7.87164 16.0136 7.77882 15.9862 7.67394C15.9588 7.56907 15.967 7.45806 16.0095 7.35834C16.052 7.25861 16.1263 7.1758 16.221 7.1229L16.894 6.7465C17.0894 6.63725 17.2708 6.50482 17.4344 6.35209C17.5294 6.26471 17.655 6.21839 17.784 6.22319C17.913 6.228 18.0349 6.28354 18.1231 6.37774C18.2113 6.47195 18.2588 6.59718 18.2552 6.72621C18.2515 6.85523 18.1971 6.9776 18.1037 7.06669C17.8825 7.27397 17.6368 7.45345 17.3721 7.60113L16.6992 7.97752C16.6262 8.01832 16.544 8.03976 16.4605 8.0398ZM5.88949 6.64995C5.79221 6.64989 5.69715 6.62085 5.61643 6.56655C5.53572 6.51225 5.473 6.43514 5.43628 6.34506C5.39956 6.25498 5.3905 6.156 5.41024 6.06074C5.42999 5.96549 5.47766 5.87827 5.54717 5.81021C5.78247 5.58009 6.04726 5.3822 6.33462 5.22173L6.94915 4.87804C7.00532 4.84549 7.0674 4.82443 7.13178 4.81609C7.19616 4.80776 7.26155 4.81231 7.32416 4.82948C7.38677 4.84666 7.44533 4.87611 7.49645 4.91613C7.54756 4.95615 7.59021 5.00593 7.62191 5.06258C7.65361 5.11924 7.67372 5.18163 7.68108 5.24613C7.68844 5.31063 7.68289 5.37595 7.66477 5.43829C7.64665 5.50063 7.61631 5.55874 7.57553 5.60924C7.53474 5.65975 7.48431 5.70163 7.42718 5.73247L6.81265 6.07616C6.60074 6.19454 6.40548 6.34054 6.232 6.51032C6.14048 6.59986 6.01752 6.64999 5.88949 6.64995ZM18.6111 5.90343C18.533 5.90342 18.4559 5.8847 18.3865 5.84884C18.3171 5.81297 18.2572 5.761 18.212 5.69727C18.1667 5.63355 18.1374 5.55991 18.1264 5.48253C18.1155 5.40515 18.1232 5.32626 18.149 5.25248C18.2954 4.83349 18.3388 4.38536 18.2753 3.94606C18.2566 3.81759 18.2896 3.68696 18.3672 3.58288C18.4448 3.4788 18.5606 3.40981 18.6891 3.39107C18.8175 3.37263 18.948 3.40585 19.0521 3.48344C19.1561 3.56103 19.2251 3.67668 19.2441 3.80506C19.3303 4.40032 19.2717 5.00761 19.0733 5.57541C19.0398 5.67126 18.9773 5.75432 18.8945 5.81309C18.8117 5.87186 18.7127 5.90343 18.6111 5.90343ZM8.55069 5.03314C8.44238 5.0331 8.33713 4.99715 8.25143 4.93093C8.16572 4.8647 8.10438 4.77194 8.07701 4.66714C8.04963 4.56235 8.05777 4.45143 8.10014 4.35175C8.14251 4.25207 8.21673 4.16925 8.31118 4.11624L9.67321 3.35444C9.78624 3.29504 9.918 3.28212 10.0404 3.31845C10.1628 3.35477 10.2662 3.43746 10.3285 3.5489C10.3909 3.66033 10.4072 3.79171 10.3741 3.91502C10.341 4.03834 10.261 4.14385 10.1512 4.20907L8.78921 4.97087C8.71632 5.01163 8.63421 5.03307 8.55069 5.03314ZM11.2748 3.50935C11.1664 3.50947 11.061 3.47362 10.9752 3.40741C10.8893 3.3412 10.8279 3.24838 10.8005 3.1435C10.7731 3.03862 10.7813 2.92762 10.8238 2.82789C10.8663 2.72816 10.9406 2.64536 11.0352 2.59245L12.3973 1.83065C12.5106 1.76726 12.6445 1.75149 12.7694 1.7868C12.8944 1.82211 13.0002 1.90562 13.0636 2.01895C13.127 2.13228 13.1428 2.26615 13.1075 2.39111C13.0721 2.51607 12.9886 2.62188 12.8753 2.68528L11.5133 3.44707C11.4404 3.48784 11.3583 3.50928 11.2748 3.50935ZM18.1783 2.93281C18.0266 2.93281 17.8767 2.86231 17.781 2.72973C17.5213 2.3702 17.1783 2.07902 16.7814 1.88118C16.6652 1.82319 16.5768 1.72141 16.5356 1.59823C16.4945 1.47505 16.5039 1.34056 16.5619 1.22435C16.6199 1.10813 16.7217 1.01972 16.8449 0.978548C16.968 0.937378 17.1025 0.946827 17.2187 1.00482C17.7569 1.27408 18.2222 1.66923 18.5751 2.15672C18.6278 2.22981 18.6594 2.31604 18.6663 2.40592C18.6731 2.4958 18.655 2.58582 18.614 2.66608C18.573 2.74634 18.5106 2.81371 18.4337 2.86078C18.3568 2.90784 18.2685 2.93277 18.1783 2.93281ZM13.999 1.98575C13.8903 1.98559 13.7847 1.94928 13.6989 1.88251C13.6131 1.81575 13.5519 1.72234 13.525 1.61699C13.4981 1.51164 13.507 1.40033 13.5503 1.3006C13.5936 1.20087 13.6689 1.11838 13.7642 1.06611C14.2927 0.778239 14.8828 0.622115 15.4844 0.610992C15.5489 0.609378 15.613 0.620606 15.673 0.64402C15.7331 0.667434 15.7879 0.702566 15.8342 0.747369C15.8805 0.792172 15.9175 0.84575 15.9429 0.904979C15.9683 0.964208 15.9817 1.0279 15.9822 1.09235C15.9833 1.15665 15.9717 1.22053 15.9481 1.28035C15.9245 1.34016 15.8894 1.39475 15.8447 1.44097C15.8 1.4872 15.7466 1.52417 15.6876 1.54977C15.6286 1.57537 15.5652 1.5891 15.5009 1.59017C15.0544 1.5978 14.6278 1.71061 14.233 1.92583C14.1586 1.96656 14.0781 1.98575 13.999 1.98575Z" fill="#3F7E00"/>
<path d="M5.46199 16.425C5.38337 16.425 5.30591 16.4061 5.23616 16.3698C5.16641 16.3336 5.10641 16.281 5.06125 16.2167C5.01609 16.1523 4.98709 16.078 4.9767 16.0001C4.96632 15.9222 4.97485 15.8429 5.00158 15.769L7.75796 8.14081L15.3111 3.91607C15.4244 3.85267 15.5583 3.8369 15.6833 3.87221C15.8082 3.90752 15.9141 3.99103 15.9774 4.10436C16.0408 4.21769 16.0566 4.35156 16.0213 4.47652C15.986 4.60148 15.9025 4.7073 15.7891 4.77069L8.55481 8.81703L5.9224 16.1017C5.88821 16.1964 5.82566 16.2782 5.74327 16.3361C5.66088 16.394 5.56266 16.425 5.46199 16.425Z" fill="#3F7E00"/>
</g>
<defs>
<clipPath id="clip0_53_373">
<rect width="19.5835" height="19.5835" fill="white" transform="translate(0.299988 0.324951)"/>
</clipPath>
</defs>
</svg>
