<svg width="45" height="35" viewBox="0 0 45 35" fill="none" xmlns="http://www.w3.org/2000/svg">
<path d="M15.3242 15.1828V4.51757L18.1683 2.38452L20.3013 3.98431L22.4344 2.38452L24.5674 3.98431L26.7005 2.38452L29.5446 4.51757V15.1828H15.3242ZM16.7463 13.7608H19.5903V5.22859L18.1683 4.16206L16.7463 5.22859V13.7608ZM21.0124 13.7608H23.8564V5.22859L22.4344 4.16206L21.0124 5.22859V13.7608ZM25.2785 13.7608H28.1225V5.22859L26.7005 4.16206L25.2785 5.22859V13.7608Z" fill="black"/>
<path d="M5.93676 25.4859C5.90071 25.546 5.86066 25.592 5.81661 25.6241C5.77656 25.6521 5.7265 25.6661 5.66643 25.6661C5.59835 25.6661 5.51826 25.6321 5.42615 25.564C5.33404 25.4959 5.2179 25.4218 5.07773 25.3417C4.94157 25.2576 4.77537 25.1815 4.57914 25.1134C4.38691 25.0454 4.15263 25.0113 3.8763 25.0113C3.61599 25.0113 3.38572 25.0474 3.18548 25.1195C2.98925 25.1875 2.82305 25.2816 2.68689 25.4018C2.55473 25.5219 2.45461 25.6641 2.38653 25.8283C2.31845 25.9885 2.28441 26.1627 2.28441 26.3509C2.28441 26.5912 2.34248 26.7914 2.45861 26.9516C2.57876 27.1078 2.73494 27.242 2.92717 27.3541C3.12341 27.4662 3.34367 27.5644 3.58796 27.6485C3.83625 27.7286 4.08855 27.8127 4.34486 27.9008C4.60517 27.9889 4.85747 28.089 5.10176 28.2011C5.35006 28.3092 5.57032 28.4474 5.76255 28.6156C5.95878 28.7838 6.11497 28.9901 6.23111 29.2344C6.35125 29.4786 6.41132 29.779 6.41132 30.1354C6.41132 30.5119 6.34724 30.8663 6.21909 31.1987C6.09094 31.5271 5.90271 31.8134 5.65442 32.0577C5.41013 32.302 5.10777 32.4942 4.74734 32.6344C4.39091 32.7746 3.98443 32.8446 3.52789 32.8446C2.96722 32.8446 2.45861 32.7445 2.00207 32.5443C1.54553 32.34 1.15506 32.0657 0.830676 31.7213L1.16708 31.1687C1.19911 31.1246 1.23716 31.0886 1.28121 31.0605C1.32927 31.0285 1.38133 31.0125 1.4374 31.0125C1.48946 31.0125 1.54753 31.0345 1.61161 31.0785C1.67969 31.1186 1.75578 31.1707 1.83988 31.2347C1.92398 31.2988 2.02009 31.3689 2.12822 31.445C2.23635 31.5211 2.3585 31.5912 2.49466 31.6552C2.63482 31.7193 2.79301 31.7734 2.96922 31.8174C3.14543 31.8575 3.34367 31.8775 3.56393 31.8775C3.84026 31.8775 4.08655 31.8395 4.30281 31.7634C4.51907 31.6873 4.70128 31.5811 4.84946 31.445C5.00164 31.3048 5.11778 31.1386 5.19788 30.9464C5.27797 30.7542 5.31802 30.5399 5.31802 30.3036C5.31802 30.0433 5.25795 29.8311 5.1378 29.6669C5.02167 29.4987 4.86748 29.3585 4.67525 29.2464C4.48302 29.1342 4.26276 29.0401 4.01447 28.964C3.76617 28.8839 3.51387 28.8038 3.25757 28.7237C3.00126 28.6396 2.74896 28.5435 2.50066 28.4354C2.25237 28.3273 2.03211 28.1871 1.83988 28.0149C1.64765 27.8427 1.49146 27.6284 1.37132 27.3721C1.25518 27.1118 1.19711 26.7914 1.19711 26.411C1.19711 26.1066 1.25518 25.8123 1.37132 25.5279C1.49146 25.2436 1.66367 24.9913 1.88793 24.771C2.11621 24.5508 2.39454 24.3746 2.72293 24.2424C3.05532 24.1103 3.43578 24.0442 3.86429 24.0442C4.34486 24.0442 4.78138 24.1203 5.17385 24.2724C5.57032 24.4246 5.91873 24.6449 6.21909 24.9332L5.93676 25.4859ZM11.8423 29.0421C11.8423 28.7938 11.8062 28.5676 11.7341 28.3633C11.666 28.1551 11.5639 27.9769 11.4278 27.8287C11.2956 27.6765 11.1334 27.5604 10.9412 27.4803C10.749 27.3962 10.5307 27.3541 10.2864 27.3541C9.77379 27.3541 9.36731 27.5043 9.06695 27.8046C8.7706 28.101 8.58638 28.5135 8.51429 29.0421H11.8423ZM12.7073 31.8955C12.5751 32.0557 12.4169 32.1959 12.2327 32.316C12.0485 32.4322 11.8503 32.5283 11.638 32.6044C11.4298 32.6805 11.2135 32.7365 10.9892 32.7726C10.765 32.8126 10.5427 32.8326 10.3224 32.8326C9.90194 32.8326 9.51348 32.7626 9.15706 32.6224C8.80464 32.4782 8.49827 32.27 8.23796 31.9976C7.98166 31.7213 7.78142 31.3809 7.63725 30.9764C7.49308 30.5719 7.42099 30.1074 7.42099 29.5828C7.42099 29.1583 7.48507 28.7618 7.61322 28.3934C7.74538 28.0249 7.9336 27.7065 8.17789 27.4382C8.42218 27.1659 8.72054 26.9536 9.07296 26.8015C9.42538 26.6453 9.82185 26.5672 10.2624 26.5672C10.6268 26.5672 10.9632 26.6292 11.2716 26.7534C11.5839 26.8735 11.8523 27.0498 12.0765 27.282C12.3048 27.5103 12.483 27.7946 12.6112 28.135C12.7393 28.4714 12.8034 28.8559 12.8034 29.2884C12.8034 29.4566 12.7854 29.5687 12.7493 29.6248C12.7133 29.6809 12.6452 29.7089 12.5451 29.7089H8.47825C8.49026 30.0934 8.54233 30.4278 8.63444 30.7121C8.73055 30.9964 8.86271 31.2347 9.03091 31.427C9.19911 31.6152 9.39935 31.7574 9.63162 31.8535C9.8639 31.9456 10.1242 31.9916 10.4126 31.9916C10.6809 31.9916 10.9111 31.9616 11.1034 31.9015C11.2996 31.8375 11.4678 31.7694 11.608 31.6973C11.7481 31.6252 11.8643 31.5591 11.9564 31.499C12.0525 31.435 12.1346 31.4029 12.2027 31.4029C12.2908 31.4029 12.3589 31.437 12.4069 31.5051L12.7073 31.8955ZM15.132 27.8827C15.3242 27.4662 15.5605 27.1419 15.8409 26.9096C16.1212 26.6733 16.4636 26.5552 16.8681 26.5552C16.9962 26.5552 17.1184 26.5692 17.2345 26.5972C17.3547 26.6252 17.4608 26.6693 17.5529 26.7294L17.4748 27.5283C17.4508 27.6284 17.3907 27.6785 17.2946 27.6785C17.2385 27.6785 17.1564 27.6665 17.0483 27.6425C16.9402 27.6184 16.818 27.6064 16.6819 27.6064C16.4896 27.6064 16.3174 27.6344 16.1652 27.6905C16.0171 27.7466 15.8829 27.8307 15.7628 27.9428C15.6466 28.0509 15.5405 28.1871 15.4444 28.3513C15.3523 28.5115 15.2682 28.6957 15.1921 28.904V32.7485H14.1168V26.6633H14.7295C14.8457 26.6633 14.9258 26.6853 14.9698 26.7294C15.0139 26.7734 15.0439 26.8495 15.0599 26.9576L15.132 27.8827ZM23.7073 26.6633L21.2264 32.7485H20.2652L17.7843 26.6633H18.6553C18.7434 26.6633 18.8155 26.6853 18.8716 26.7294C18.9276 26.7734 18.9657 26.8255 18.9857 26.8856L20.5295 30.8022C20.5776 30.9504 20.6196 31.0946 20.6557 31.2347C20.6917 31.3749 20.7258 31.5151 20.7578 31.6552C20.7898 31.5151 20.8239 31.3749 20.8599 31.2347C20.896 31.0946 20.94 30.9504 20.9921 30.8022L22.5539 26.8856C22.578 26.8215 22.618 26.7694 22.6741 26.7294C22.7302 26.6853 22.7962 26.6633 22.8723 26.6633H23.7073ZM25.8173 26.6633V32.7485H24.7481V26.6633H25.8173ZM26.0456 24.753C26.0456 24.8571 26.0236 24.9553 25.9795 25.0474C25.9395 25.1355 25.8834 25.2156 25.8113 25.2877C25.7432 25.3557 25.6611 25.4098 25.565 25.4498C25.4729 25.4899 25.3748 25.5099 25.2707 25.5099C25.1666 25.5099 25.0684 25.4899 24.9763 25.4498C24.8882 25.4098 24.8101 25.3557 24.742 25.2877C24.674 25.2156 24.6199 25.1355 24.5799 25.0474C24.5398 24.9553 24.5198 24.8571 24.5198 24.753C24.5198 24.6489 24.5398 24.5508 24.5799 24.4587C24.6199 24.3626 24.674 24.2805 24.742 24.2124C24.8101 24.1403 24.8882 24.0842 24.9763 24.0442C25.0684 24.0041 25.1666 23.9841 25.2707 23.9841C25.3748 23.9841 25.4729 24.0041 25.565 24.0442C25.6611 24.0842 25.7432 24.1403 25.8113 24.2124C25.8834 24.2805 25.9395 24.3626 25.9795 24.4587C26.0236 24.5508 26.0456 24.6489 26.0456 24.753ZM31.8093 27.7446C31.7772 27.7886 31.7452 27.8227 31.7132 27.8467C31.6811 27.8707 31.6371 27.8827 31.581 27.8827C31.5209 27.8827 31.4549 27.8587 31.3828 27.8107C31.3107 27.7586 31.2206 27.7025 31.1124 27.6425C31.0083 27.5824 30.8782 27.5283 30.722 27.4803C30.5698 27.4282 30.3816 27.4022 30.1573 27.4022C29.857 27.4022 29.5926 27.4562 29.3644 27.5644C29.1361 27.6685 28.9439 27.8207 28.7877 28.0209C28.6355 28.2211 28.5194 28.4634 28.4393 28.7478C28.3632 29.0321 28.3251 29.3505 28.3251 29.7029C28.3251 30.0713 28.3672 30.3997 28.4513 30.6881C28.5354 30.9724 28.6535 31.2127 28.8057 31.4089C28.9619 31.6012 29.1481 31.7493 29.3644 31.8535C29.5846 31.9536 29.8309 32.0036 30.1032 32.0036C30.3636 32.0036 30.5778 31.9736 30.746 31.9135C30.9142 31.8495 31.0524 31.7794 31.1605 31.7033C31.2726 31.6272 31.3647 31.5591 31.4368 31.499C31.5129 31.435 31.587 31.4029 31.6591 31.4029C31.7472 31.4029 31.8153 31.437 31.8633 31.5051L32.1637 31.8955C32.0315 32.0597 31.8814 32.1999 31.7132 32.316C31.545 32.4322 31.3627 32.5303 31.1665 32.6104C30.9743 32.6865 30.772 32.7425 30.5598 32.7786C30.3475 32.8146 30.1313 32.8326 29.911 32.8326C29.5306 32.8326 29.1761 32.7626 28.8477 32.6224C28.5234 32.4822 28.241 32.28 28.0007 32.0157C27.7605 31.7473 27.5722 31.419 27.4361 31.0305C27.2999 30.642 27.2318 30.1995 27.2318 29.7029C27.2318 29.2504 27.2939 28.8319 27.418 28.4474C27.5462 28.063 27.7304 27.7326 27.9707 27.4562C28.215 27.1759 28.5134 26.9576 28.8658 26.8015C29.2222 26.6453 29.6307 26.5672 30.0912 26.5672C30.5197 26.5672 30.8962 26.6373 31.2206 26.7774C31.549 26.9136 31.8393 27.1078 32.0916 27.3601L31.8093 27.7446ZM37.2788 29.0421C37.2788 28.7938 37.2427 28.5676 37.1707 28.3633C37.1026 28.1551 37.0005 27.9769 36.8643 27.8287C36.7321 27.6765 36.5699 27.5604 36.3777 27.4803C36.1855 27.3962 35.9672 27.3541 35.7229 27.3541C35.2103 27.3541 34.8038 27.5043 34.5035 27.8046C34.2071 28.101 34.0229 28.5135 33.9508 29.0421H37.2788ZM38.1438 31.8955C38.0117 32.0557 37.8535 32.1959 37.6693 32.316C37.485 32.4322 37.2868 32.5283 37.0745 32.6044C36.8663 32.6805 36.65 32.7365 36.4258 32.7726C36.2015 32.8126 35.9792 32.8326 35.759 32.8326C35.3385 32.8326 34.95 32.7626 34.5936 32.6224C34.2412 32.4782 33.9348 32.27 33.6745 31.9976C33.4182 31.7213 33.218 31.3809 33.0738 30.9764C32.9296 30.5719 32.8575 30.1074 32.8575 29.5828C32.8575 29.1583 32.9216 28.7618 33.0498 28.3934C33.1819 28.0249 33.3701 27.7065 33.6144 27.4382C33.8587 27.1659 34.1571 26.9536 34.5095 26.8015C34.8619 26.6453 35.2584 26.5672 35.6989 26.5672C36.0633 26.5672 36.3997 26.6292 36.7081 26.7534C37.0205 26.8735 37.2888 27.0498 37.5131 27.282C37.7413 27.5103 37.9195 27.7946 38.0477 28.135C38.1759 28.4714 38.2399 28.8559 38.2399 29.2884C38.2399 29.4566 38.2219 29.5687 38.1859 29.6248C38.1498 29.6809 38.0817 29.7089 37.9816 29.7089H33.9148C33.9268 30.0934 33.9789 30.4278 34.071 30.7121C34.1671 30.9964 34.2992 31.2347 34.4674 31.427C34.6356 31.6152 34.8359 31.7574 35.0682 31.8535C35.3004 31.9456 35.5607 31.9916 35.8491 31.9916C36.1174 31.9916 36.3477 31.9616 36.5399 31.9015C36.7361 31.8375 36.9043 31.7694 37.0445 31.6973C37.1847 31.6252 37.3008 31.5591 37.3929 31.499C37.489 31.435 37.5711 31.4029 37.6392 31.4029C37.7273 31.4029 37.7954 31.437 37.8435 31.5051L38.1438 31.8955ZM43.0976 27.6665C43.0495 27.7546 42.9754 27.7986 42.8753 27.7986C42.8152 27.7986 42.7471 27.7766 42.671 27.7326C42.595 27.6885 42.5008 27.6405 42.3887 27.5884C42.2806 27.5323 42.1504 27.4823 41.9982 27.4382C41.8461 27.3902 41.6659 27.3661 41.4576 27.3661C41.2774 27.3661 41.1152 27.3902 40.971 27.4382C40.8269 27.4823 40.7027 27.5443 40.5986 27.6244C40.4985 27.7045 40.4204 27.7986 40.3643 27.9068C40.3122 28.0109 40.2862 28.125 40.2862 28.2492C40.2862 28.4054 40.3303 28.5355 40.4184 28.6396C40.5105 28.7438 40.6306 28.8339 40.7788 28.91C40.927 28.9861 41.0952 29.0541 41.2834 29.1142C41.4716 29.1703 41.6639 29.2323 41.8601 29.3004C42.0603 29.3645 42.2546 29.4366 42.4428 29.5167C42.631 29.5968 42.7992 29.6969 42.9474 29.817C43.0956 29.9372 43.2137 30.0854 43.3018 30.2616C43.3939 30.4338 43.44 30.642 43.44 30.8863C43.44 31.1667 43.3899 31.427 43.2898 31.6672C43.1897 31.9035 43.0415 32.1098 42.8453 32.286C42.649 32.4582 42.4087 32.5944 42.1244 32.6945C41.8401 32.7946 41.5117 32.8446 41.1392 32.8446C40.7147 32.8446 40.3303 32.7766 39.9859 32.6404C39.6414 32.5002 39.3491 32.322 39.1088 32.1058L39.3611 31.6973C39.3931 31.6452 39.4312 31.6052 39.4752 31.5771C39.5193 31.5491 39.5754 31.5351 39.6434 31.5351C39.7155 31.5351 39.7916 31.5631 39.8717 31.6192C39.9518 31.6753 40.0479 31.7373 40.1601 31.8054C40.2762 31.8735 40.4164 31.9356 40.5806 31.9916C40.7448 32.0477 40.949 32.0757 41.1933 32.0757C41.4015 32.0757 41.5838 32.0497 41.7399 31.9976C41.8961 31.9416 42.0263 31.8675 42.1304 31.7754C42.2345 31.6833 42.3106 31.5771 42.3587 31.457C42.4107 31.3369 42.4368 31.2087 42.4368 31.0725C42.4368 30.9043 42.3907 30.7662 42.2986 30.658C42.2105 30.5459 42.0924 30.4518 41.9442 30.3757C41.796 30.2956 41.6258 30.2275 41.4336 30.1715C41.2454 30.1114 41.0511 30.0493 40.8509 29.9852C40.6546 29.9212 40.4604 29.8491 40.2682 29.769C40.08 29.6849 39.9118 29.5808 39.7636 29.4566C39.6154 29.3325 39.4953 29.1803 39.4032 29.0001C39.3151 28.8159 39.271 28.5936 39.271 28.3333C39.271 28.101 39.3191 27.8787 39.4152 27.6665C39.5113 27.4502 39.6515 27.262 39.8357 27.1018C40.0199 26.9376 40.2462 26.8075 40.5145 26.7113C40.7828 26.6152 41.0892 26.5672 41.4336 26.5672C41.8341 26.5672 42.1925 26.6313 42.5089 26.7594C42.8292 26.8836 43.1056 27.0558 43.3378 27.276L43.0976 27.6665Z" fill="black"/>
</svg>
