<svg width="34" height="35" viewBox="0 0 34 35" fill="none" xmlns="http://www.w3.org/2000/svg">
<path d="M10.8508 9.49449H11.5618V14.4716C11.5618 15.2559 12.1996 15.8936 12.9838 15.8936H21.516C22.3003 15.8936 22.938 15.2559 22.938 14.4716V9.49449H23.6491C23.7897 9.49446 23.9271 9.45275 24.044 9.37462C24.1609 9.29649 24.252 9.18545 24.3058 9.05555C24.3596 8.92565 24.3737 8.78271 24.3463 8.64481C24.3188 8.5069 24.2512 8.38023 24.1517 8.28079L17.7526 1.88164C17.6193 1.74834 17.4384 1.67346 17.2499 1.67346C17.0614 1.67346 16.8806 1.74834 16.7472 1.88164L10.3481 8.28079C10.2487 8.38023 10.181 8.5069 10.1535 8.64481C10.1261 8.78271 10.1402 8.92565 10.194 9.05555C10.2478 9.18545 10.3389 9.29649 10.4558 9.37462C10.5727 9.45275 10.7102 9.49446 10.8508 9.49449ZM15.8279 14.4716V10.9165H18.6719V14.4716H15.8279ZM17.2499 3.3897L21.516 7.6558V10.9165L21.5167 14.4716H20.094V10.9165C20.094 10.1323 19.4562 9.49449 18.6719 9.49449H15.8279C15.0436 9.49449 14.4058 10.1323 14.4058 10.9165V14.4716H12.9838V7.6558L17.2499 3.3897Z" fill="#6E9E02"/>
<path d="M8.82361 24.1403V32.7485H7.65822V28.8319H3.0147V32.7485H1.84931V24.1403H3.0147V27.9789H7.65822V24.1403H8.82361ZM13.1493 26.5672C13.5939 26.5672 13.9943 26.6413 14.3508 26.7894C14.7072 26.9376 15.0115 27.1479 15.2638 27.4202C15.5161 27.6925 15.7084 28.0229 15.8405 28.4114C15.9767 28.7958 16.0448 29.2263 16.0448 29.7029C16.0448 30.1835 15.9767 30.616 15.8405 31.0005C15.7084 31.3849 15.5161 31.7133 15.2638 31.9856C15.0115 32.258 14.7072 32.4682 14.3508 32.6164C13.9943 32.7605 13.5939 32.8326 13.1493 32.8326C12.7008 32.8326 12.2963 32.7605 11.9359 32.6164C11.5795 32.4682 11.2751 32.258 11.0228 31.9856C10.7705 31.7133 10.5763 31.3849 10.4401 31.0005C10.3079 30.616 10.2419 30.1835 10.2419 29.7029C10.2419 29.2263 10.3079 28.7958 10.4401 28.4114C10.5763 28.0229 10.7705 27.6925 11.0228 27.4202C11.2751 27.1479 11.5795 26.9376 11.9359 26.7894C12.2963 26.6413 12.7008 26.5672 13.1493 26.5672ZM13.1493 31.9976C13.75 31.9976 14.1986 31.7974 14.4949 31.3969C14.7913 30.9924 14.9395 30.4298 14.9395 29.7089C14.9395 28.9841 14.7913 28.4194 14.4949 28.0149C14.1986 27.6104 13.75 27.4082 13.1493 27.4082C12.845 27.4082 12.5786 27.4602 12.3504 27.5644C12.1261 27.6685 11.9379 27.8187 11.7857 28.0149C11.6375 28.2111 11.5254 28.4534 11.4493 28.7418C11.3772 29.0261 11.3412 29.3485 11.3412 29.7089C11.3412 30.4298 11.4893 30.9924 11.7857 31.3969C12.0861 31.7974 12.5406 31.9976 13.1493 31.9976ZM17.401 32.7485V26.6633H18.0437C18.1959 26.6633 18.29 26.7374 18.3261 26.8856L18.4042 27.5103C18.6284 27.234 18.8807 27.0077 19.1611 26.8315C19.4414 26.6553 19.7658 26.5672 20.1342 26.5672C20.5427 26.5672 20.8731 26.6813 21.1254 26.9096C21.3817 27.1379 21.5659 27.4462 21.6781 27.8347C21.7662 27.6144 21.8783 27.4242 22.0145 27.264C22.1546 27.1038 22.3108 26.9717 22.483 26.8675C22.6552 26.7634 22.8375 26.6873 23.0297 26.6393C23.2259 26.5912 23.4241 26.5672 23.6244 26.5672C23.9448 26.5672 24.2291 26.6192 24.4774 26.7234C24.7297 26.8235 24.942 26.9717 25.1142 27.1679C25.2904 27.3641 25.4245 27.6064 25.5166 27.8948C25.6088 28.1791 25.6548 28.5055 25.6548 28.8739V32.7485H24.5795V28.8739C24.5795 28.3974 24.4754 28.0369 24.2672 27.7926C24.0589 27.5443 23.7585 27.4202 23.3661 27.4202C23.1899 27.4202 23.0217 27.4522 22.8615 27.5163C22.7053 27.5764 22.5671 27.6665 22.447 27.7866C22.3268 27.9068 22.2307 28.059 22.1586 28.2432C22.0906 28.4234 22.0565 28.6336 22.0565 28.8739V32.7485H20.9812V28.8739C20.9812 28.3853 20.8831 28.0209 20.6869 27.7806C20.4907 27.5403 20.2043 27.4202 19.8279 27.4202C19.5636 27.4202 19.3193 27.4923 19.095 27.6364C18.8707 27.7766 18.6645 27.9688 18.4763 28.2131V32.7485H17.401ZM31.3528 29.0421C31.3528 28.7938 31.3167 28.5676 31.2446 28.3633C31.1766 28.1551 31.0744 27.9769 30.9383 27.8287C30.8061 27.6765 30.6439 27.5604 30.4517 27.4803C30.2595 27.3962 30.0412 27.3541 29.7969 27.3541C29.2843 27.3541 28.8778 27.5043 28.5775 27.8046C28.2811 28.101 28.0969 28.5135 28.0248 29.0421H31.3528ZM32.2178 31.8955C32.0856 32.0557 31.9275 32.1959 31.7432 32.316C31.559 32.4322 31.3608 32.5283 31.1485 32.6044C30.9403 32.6805 30.724 32.7365 30.4998 32.7726C30.2755 32.8126 30.0532 32.8326 29.833 32.8326C29.4125 32.8326 29.024 32.7626 28.6676 32.6224C28.3152 32.4782 28.0088 32.27 27.7485 31.9976C27.4922 31.7213 27.2919 31.3809 27.1478 30.9764C27.0036 30.5719 26.9315 30.1074 26.9315 29.5828C26.9315 29.1583 26.9956 28.7618 27.1237 28.3934C27.2559 28.0249 27.4441 27.7065 27.6884 27.4382C27.9327 27.1659 28.2311 26.9536 28.5835 26.8015C28.9359 26.6453 29.3324 26.5672 29.7729 26.5672C30.1373 26.5672 30.4737 26.6292 30.7821 26.7534C31.0945 26.8735 31.3628 27.0498 31.5871 27.282C31.8153 27.5103 31.9935 27.7946 32.1217 28.135C32.2498 28.4714 32.3139 28.8559 32.3139 29.2884C32.3139 29.4566 32.2959 29.5687 32.2599 29.6248C32.2238 29.6809 32.1557 29.7089 32.0556 29.7089H27.9888C28.0008 30.0934 28.0528 30.4278 28.145 30.7121C28.2411 30.9964 28.3732 31.2347 28.5414 31.427C28.7096 31.6152 28.9099 31.7574 29.1421 31.8535C29.3744 31.9456 29.6347 31.9916 29.9231 31.9916C30.1914 31.9916 30.4217 31.9616 30.6139 31.9015C30.8101 31.8375 30.9783 31.7694 31.1185 31.6973C31.2587 31.6252 31.3748 31.5591 31.4669 31.499C31.563 31.435 31.6451 31.4029 31.7132 31.4029C31.8013 31.4029 31.8694 31.437 31.9174 31.5051L32.2178 31.8955Z" fill="white"/>
</svg>
