<svg width="20" height="20" viewBox="0 0 20 20" fill="none" xmlns="http://www.w3.org/2000/svg">
<path d="M18.0311 8.28081H16.1951V4.6089H18.0311C18.1934 4.6089 18.349 4.54443 18.4638 4.42966C18.5786 4.31489 18.643 4.15923 18.643 3.99692C18.643 3.83461 18.5786 3.67895 18.4638 3.56418C18.349 3.44941 18.1934 3.38493 18.0311 3.38493H16.0291C15.9218 3.19916 15.7677 3.04484 15.582 2.93743C15.3963 2.83003 15.1856 2.7733 14.9711 2.77295H13.7472C13.5327 2.7733 13.322 2.83003 13.1363 2.93743C12.9506 3.04484 12.7964 3.19916 12.6892 3.38493H11.2992C9.1899 3.38716 7.16761 4.22607 5.67609 5.71759C4.18457 7.20911 3.34566 9.2314 3.34343 11.3407V12.7299C3.15755 12.8373 3.00315 12.9916 2.89574 13.1774C2.78832 13.3632 2.73167 13.574 2.73145 13.7887V15.0126C2.73167 15.2273 2.78832 15.4381 2.89574 15.6239C3.00315 15.8097 3.15755 15.964 3.34343 16.0714V18.0726C3.34343 18.2349 3.40791 18.3905 3.52268 18.5053C3.63745 18.6201 3.79311 18.6845 3.95541 18.6845C4.11772 18.6845 4.27338 18.6201 4.38815 18.5053C4.50292 18.3905 4.5674 18.2349 4.5674 18.0726V16.2366H8.2393V18.0726C8.2393 18.2349 8.30378 18.3905 8.41855 18.5053C8.53332 18.6201 8.68898 18.6845 8.85129 18.6845C9.0136 18.6845 9.16926 18.6201 9.28403 18.5053C9.3988 18.3905 9.46327 18.2349 9.46327 18.0726V16.0714C9.64915 15.964 9.80355 15.8097 9.91096 15.6239C10.0184 15.4381 10.075 15.2273 10.0753 15.0126V13.7887C10.075 13.574 10.0184 13.3632 9.91096 13.1774C9.80355 12.9916 9.64915 12.8373 9.46327 12.7299V11.3407C9.46327 10.8538 9.6567 10.3868 10.001 10.0425C10.3453 9.69821 10.8123 9.50478 11.2992 9.50478H12.6892C12.7964 9.69055 12.9506 9.84487 13.1363 9.95228C13.322 10.0597 13.5327 10.1164 13.7472 10.1168H14.9711C15.1856 10.1164 15.3963 10.0597 15.582 9.95228C15.7677 9.84487 15.9218 9.69055 16.0291 9.50478H18.0311C18.1934 9.50478 18.349 9.4403 18.4638 9.32553C18.5786 9.21076 18.643 9.0551 18.643 8.89279C18.643 8.73048 18.5786 8.57482 18.4638 8.46005C18.349 8.34528 18.1934 8.28081 18.0311 8.28081ZM8.85129 13.7887V15.0126H3.95541V13.7887H8.85129ZM8.2393 11.3407V12.5647H4.5674V11.3407C4.56942 9.55596 5.27932 7.84487 6.54134 6.58284C7.80336 5.32082 9.51445 4.61093 11.2992 4.6089H12.5232V8.28081H11.2992C10.4877 8.28081 9.70938 8.60319 9.13553 9.17704C8.56169 9.75088 8.2393 10.5292 8.2393 11.3407ZM13.7472 8.89279V3.99692H14.9711V8.89279H13.7472Z" fill="#3F7E00"/>
</svg>
