<svg width="21" height="21" viewBox="0 0 21 21" fill="none" xmlns="http://www.w3.org/2000/svg">
<path d="M10.0488 11.7777L10.6608 9.73779L11.2728 11.7777L10.6608 12.5937L10.0488 11.7777Z" fill="#3F7E00"/>
<path fill-rule="evenodd" clip-rule="evenodd" d="M16.5799 8.65795C16.8739 8.56953 17.1316 8.3887 17.3147 8.14228C17.4979 7.89587 17.5967 7.59698 17.5966 7.28996V4.84203C17.5966 4.46331 17.4462 4.1001 17.1784 3.8323C16.9106 3.56451 16.5474 3.41406 16.1687 3.41406C15.7899 3.41406 15.4267 3.56451 15.1589 3.8323C14.8911 4.1001 14.7407 4.46331 14.7407 4.84203V7.28996C14.7406 7.59804 14.8402 7.89789 15.0245 8.14473C15.2089 8.39157 15.4681 8.57218 15.7635 8.65958C15.7676 9.11844 15.7726 9.55716 15.7786 9.97576C15.7986 11.4653 15.8153 12.7072 15.7064 13.7395C15.5526 15.2001 15.1597 16.0919 14.2854 16.6068C13.1104 17.2992 11.3328 17.5391 9.83625 17.3506C9.09085 17.2567 8.45357 17.0609 8.0158 16.7933C7.83873 16.6851 7.70369 16.5721 7.60536 16.4554C8.34954 16.4134 9.07617 16.2788 9.66734 16.0385C10.3923 15.7435 11.0492 15.2229 11.0684 14.4008C11.7476 14.302 12.3685 13.962 12.8176 13.4429C13.2667 12.9238 13.5138 12.2604 13.5139 11.574C13.5139 10.8877 13.2669 10.2242 12.8179 9.70507C12.3689 9.18593 11.748 8.84579 11.0688 8.74689V6.31976H11.0676C11.0684 6.30344 11.0688 6.28685 11.0688 6.26999C11.0688 5.14353 9.24222 4.23004 6.98889 4.23004C4.73557 4.23004 2.909 5.14353 2.909 6.26999C2.909 6.28658 2.9094 6.30317 2.91022 6.31976H2.909V14.3645C2.909 15.1744 3.5883 15.6917 4.3084 15.9903C4.9775 16.2678 5.82408 16.4228 6.67474 16.4603C6.83304 16.8944 7.17657 17.2367 7.59027 17.4897C8.16105 17.8385 8.92195 18.058 9.73425 18.1604C11.3523 18.364 13.3262 18.1196 14.6995 17.3098C15.9096 16.597 16.3547 15.3767 16.5179 13.8247C16.6321 12.7419 16.6142 11.4249 16.5942 9.90681C16.5882 9.50426 16.5834 9.08797 16.5799 8.65795ZM16.1687 4.23004C16.331 4.23004 16.4866 4.29452 16.6014 4.40929C16.7162 4.52406 16.7806 4.67972 16.7806 4.84203V7.28996C16.7806 7.45227 16.7162 7.60793 16.6014 7.7227C16.4866 7.83747 16.331 7.90195 16.1687 7.90195C16.0063 7.90195 15.8507 7.83747 15.7359 7.7227C15.6211 7.60793 15.5567 7.45227 15.5567 7.28996V4.84203C15.5567 4.67972 15.6211 4.52406 15.7359 4.40929C15.8507 4.29452 16.0063 4.23004 16.1687 4.23004ZM10.2528 6.26999C10.2528 6.35771 10.1606 6.65676 9.50904 6.98275C8.90603 7.28384 8.01621 7.49396 6.98889 7.49396C5.96157 7.49396 5.07134 7.28384 4.46874 6.98275C3.81718 6.65676 3.72498 6.35771 3.72498 6.26999C3.72498 6.18227 3.81718 5.88322 4.46874 5.55723C5.07175 5.25614 5.96157 5.04602 6.98889 5.04602C8.01621 5.04602 8.90644 5.25614 9.50904 5.55723C10.1606 5.88322 10.2528 6.18227 10.2528 6.26999ZM10.2528 7.49396C9.50823 7.98966 8.32343 8.30994 6.98889 8.30994C6.86377 8.30994 6.74002 8.30722 6.61762 8.30178V15.6407C6.74247 15.6478 6.86772 15.6518 6.99338 15.6529C7.8779 15.6635 8.73753 15.5358 9.35972 15.2829C9.97701 15.0312 10.2336 14.7182 10.2516 14.4008C9.57162 14.3027 8.94979 13.9629 8.50007 13.4435C8.05036 12.9242 7.80289 12.2601 7.80304 11.5731C7.80319 10.8861 8.05094 10.2222 8.50088 9.70303C8.95082 9.18387 9.5728 8.84427 10.2528 8.74649V7.49396ZM12.7007 11.5739C12.7007 12.1149 12.4858 12.6337 12.1033 13.0163C11.7207 13.3989 11.2018 13.6138 10.6608 13.6138C10.1198 13.6138 9.6009 13.3989 9.21834 13.0163C8.83577 12.6337 8.62085 12.1149 8.62085 11.5739C8.62085 11.0328 8.83577 10.514 9.21834 10.1314C9.6009 9.74883 10.1198 9.53391 10.6608 9.53391C11.2018 9.53391 11.7207 9.74883 12.1033 10.1314C12.4858 10.514 12.7007 11.0328 12.7007 11.5739Z" fill="#3F7E00"/>
</svg>
