<svg width="21" height="20" viewBox="0 0 21 20" fill="none" xmlns="http://www.w3.org/2000/svg">
<path d="M15.7266 6.26911C15.6228 6.26911 15.5231 6.22784 15.4497 6.15439C15.3762 6.08094 15.335 5.98131 15.335 5.87744V5.28993H14.7475C14.6436 5.28993 14.544 5.24867 14.4705 5.17521C14.3971 5.10176 14.3558 5.00214 14.3558 4.89826C14.3558 4.79438 14.3971 4.69476 14.4705 4.62131C14.544 4.54786 14.6436 4.50659 14.7475 4.50659H15.7266C15.8305 4.50659 15.9301 4.54786 16.0036 4.62131C16.077 4.69476 16.1183 4.79438 16.1183 4.89826V5.87744C16.1183 5.98131 16.077 6.08094 16.0036 6.15439C15.9301 6.22784 15.8305 6.26911 15.7266 6.26911ZM13.0517 5.28993H11.356C11.2521 5.28993 11.1525 5.24867 11.079 5.17521C11.0056 5.10176 10.9643 5.00214 10.9643 4.89826C10.9643 4.79438 11.0056 4.69476 11.079 4.62131C11.1525 4.54786 11.2521 4.50659 11.356 4.50659H13.0517C13.1556 4.50659 13.2552 4.54786 13.3287 4.62131C13.4021 4.69476 13.4434 4.79438 13.4434 4.89826C13.4434 5.00214 13.4021 5.10176 13.3287 5.17521C13.2552 5.24867 13.1556 5.28993 13.0517 5.28993ZM9.66025 5.28993H7.96452C7.86064 5.28993 7.76102 5.24867 7.68756 5.17521C7.61411 5.10176 7.57285 5.00214 7.57285 4.89826C7.57285 4.79438 7.61411 4.69476 7.68756 4.62131C7.76102 4.54786 7.86064 4.50659 7.96452 4.50659H9.66025C9.76413 4.50659 9.86375 4.54786 9.9372 4.62131C10.0107 4.69476 10.0519 4.79438 10.0519 4.89826C10.0519 5.00214 10.0107 5.10176 9.9372 5.17521C9.86375 5.24867 9.76413 5.28993 9.66025 5.28993ZM5.2898 6.26911C5.18592 6.26911 5.0863 6.22784 5.01285 6.15439C4.9394 6.08094 4.89813 5.98131 4.89813 5.87744V4.89826C4.89813 4.79438 4.9394 4.69476 5.01285 4.62131C5.0863 4.54786 5.18592 4.50659 5.2898 4.50659H6.26898C6.37285 4.50659 6.47248 4.54786 6.54593 4.62131C6.61938 4.69476 6.66065 4.79438 6.66065 4.89826C6.66065 5.00214 6.61938 5.10176 6.54593 5.17521C6.47248 5.24867 6.37285 5.28993 6.26898 5.28993H5.68147V5.87744C5.68147 5.98131 5.64021 6.08094 5.56675 6.15439C5.4933 6.22784 5.39368 6.26911 5.2898 6.26911ZM5.2898 13.0519C5.18592 13.0519 5.0863 13.0106 5.01285 12.9371C4.9394 12.8637 4.89813 12.7641 4.89813 12.6602V10.9644C4.89813 10.8606 4.9394 10.7609 5.01285 10.6875C5.0863 10.614 5.18592 10.5728 5.2898 10.5728C5.39368 10.5728 5.4933 10.614 5.56675 10.6875C5.64021 10.7609 5.68147 10.8606 5.68147 10.9644V12.6602C5.68147 12.7641 5.64021 12.8637 5.56675 12.9371C5.4933 13.0106 5.39368 13.0519 5.2898 13.0519ZM5.2898 9.66038C5.18592 9.66038 5.0863 9.61912 5.01285 9.54566C4.9394 9.47221 4.89813 9.37259 4.89813 9.26871V7.57298C4.89813 7.4691 4.9394 7.36948 5.01285 7.29602C5.0863 7.22257 5.18592 7.18131 5.2898 7.18131C5.39368 7.18131 5.4933 7.22257 5.56675 7.29602C5.64021 7.36948 5.68147 7.4691 5.68147 7.57298V9.26871C5.68147 9.37259 5.64021 9.47221 5.56675 9.54566C5.4933 9.61912 5.39368 9.66038 5.2898 9.66038ZM6.26898 15.7268H5.2898C5.18592 15.7268 5.0863 15.6855 5.01285 15.612C4.9394 15.5386 4.89813 15.439 4.89813 15.3351V14.3559C4.89813 14.252 4.9394 14.1524 5.01285 14.079C5.0863 14.0055 5.18592 13.9642 5.2898 13.9642C5.39368 13.9642 5.4933 14.0055 5.56675 14.079C5.64021 14.1524 5.68147 14.252 5.68147 14.3559V14.9434H6.26898C6.37285 14.9434 6.47248 14.9847 6.54593 15.0581C6.61938 15.1316 6.66065 15.2312 6.66065 15.3351C6.66065 15.439 6.61938 15.5386 6.54593 15.612C6.47248 15.6855 6.37285 15.7268 6.26898 15.7268ZM13.0517 15.7268H11.356C11.2521 15.7268 11.1525 15.6855 11.079 15.612C11.0056 15.5386 10.9643 15.439 10.9643 15.3351C10.9643 15.2312 11.0056 15.1316 11.079 15.0581C11.1525 14.9847 11.2521 14.9434 11.356 14.9434H13.0517C13.1556 14.9434 13.2552 14.9847 13.3287 15.0581C13.4021 15.1316 13.4434 15.2312 13.4434 15.3351C13.4434 15.439 13.4021 15.5386 13.3287 15.612C13.2552 15.6855 13.1556 15.7268 13.0517 15.7268ZM9.66025 15.7268H7.96452C7.86064 15.7268 7.76102 15.6855 7.68756 15.612C7.61411 15.5386 7.57285 15.439 7.57285 15.3351C7.57285 15.2312 7.61411 15.1316 7.68756 15.0581C7.76102 14.9847 7.86064 14.9434 7.96452 14.9434H9.66025C9.76413 14.9434 9.86375 14.9847 9.9372 15.0581C10.0107 15.1316 10.0519 15.2312 10.0519 15.3351C10.0519 15.439 10.0107 15.5386 9.9372 15.612C9.86375 15.6855 9.76413 15.7268 9.66025 15.7268ZM15.7266 15.7268H14.7475C14.6436 15.7268 14.544 15.6855 14.4705 15.612C14.3971 15.5386 14.3558 15.439 14.3558 15.3351C14.3558 15.2312 14.3971 15.1316 14.4705 15.0581C14.544 14.9847 14.6436 14.9434 14.7475 14.9434H15.335V14.3559C15.335 14.252 15.3762 14.1524 15.4497 14.079C15.5231 14.0055 15.6228 13.9642 15.7266 13.9642C15.8305 13.9642 15.9301 14.0055 16.0036 14.079C16.077 14.1524 16.1183 14.252 16.1183 14.3559V15.3351C16.1183 15.439 16.077 15.5386 16.0036 15.612C15.9301 15.6855 15.8305 15.7268 15.7266 15.7268ZM15.7266 13.0519C15.6228 13.0519 15.5231 13.0106 15.4497 12.9371C15.3762 12.8637 15.335 12.7641 15.335 12.6602V10.9644C15.335 10.8606 15.3762 10.7609 15.4497 10.6875C15.5231 10.614 15.6228 10.5728 15.7266 10.5728C15.8305 10.5728 15.9301 10.614 16.0036 10.6875C16.077 10.7609 16.1183 10.8606 16.1183 10.9644V12.6602C16.1183 12.7641 16.077 12.8637 16.0036 12.9371C15.9301 13.0106 15.8305 13.0519 15.7266 13.0519ZM15.7266 9.66038C15.6228 9.66038 15.5231 9.61912 15.4497 9.54566C15.3762 9.47221 15.335 9.37259 15.335 9.26871V7.57298C15.335 7.4691 15.3762 7.36948 15.4497 7.29602C15.5231 7.22257 15.6228 7.18131 15.7266 7.18131C15.8305 7.18131 15.9301 7.22257 16.0036 7.29602C16.077 7.36948 16.1183 7.4691 16.1183 7.57298V9.26871C16.1183 9.37259 16.077 9.47221 16.0036 9.54566C15.9301 9.61912 15.8305 9.66038 15.7266 9.66038Z" fill="#3F7E00"/>
<path d="M18.3839 18.3841H2.63251C2.52864 18.3841 2.42901 18.3428 2.35556 18.2694C2.28211 18.1959 2.24084 18.0963 2.24084 17.9924V2.24104C2.24084 2.13716 2.28211 2.03754 2.35556 1.96408C2.42901 1.89063 2.52864 1.84937 2.63251 1.84937H18.3839C18.4878 1.84937 18.5874 1.89063 18.6609 1.96408C18.7343 2.03754 18.7756 2.13716 18.7756 2.24104V17.9924C18.7756 18.0963 18.7343 18.1959 18.6609 18.2694C18.5874 18.3428 18.4878 18.3841 18.3839 18.3841ZM3.02418 17.6008H17.9922V2.63271H3.02418V17.6008Z" fill="#3F7E00"/>
</svg>
