<svg width="22" height="20" viewBox="0 0 22 20" fill="none" xmlns="http://www.w3.org/2000/svg">
<path fill-rule="evenodd" clip-rule="evenodd" d="M7.95585 5.83278C7.95585 5.34585 8.14928 4.87887 8.49359 4.53456C8.83789 4.19026 9.30488 3.99683 9.7918 3.99683H12.376C12.8629 3.99683 13.3299 4.19026 13.6742 4.53456C14.0185 4.87887 14.212 5.34585 14.212 5.83278V7.66873H14.8917C15.1328 7.66873 15.3715 7.71622 15.5943 7.80849C15.817 7.90075 16.0194 8.03599 16.1899 8.20647C16.3604 8.37695 16.4956 8.57935 16.5879 8.8021C16.6801 9.02484 16.7276 9.26358 16.7276 9.50468V11.3406H17.4073C17.8943 11.3406 18.3612 11.5341 18.7055 11.8784C19.0499 12.2227 19.2433 12.6897 19.2433 13.1766V15.6245C19.2433 15.7868 19.1788 15.9425 19.064 16.0573C18.9493 16.172 18.7936 16.2365 18.6313 16.2365H3.53569C3.37338 16.2365 3.21772 16.172 3.10295 16.0573C2.98818 15.9425 2.92371 15.7868 2.92371 15.6245V13.1766C2.92371 12.6897 3.11714 12.2227 3.46144 11.8784C3.80575 11.5341 4.27273 11.3406 4.75966 11.3406H5.44019V9.50468C5.44019 9.01776 5.63362 8.55078 5.97792 8.20647C6.32223 7.86216 6.78921 7.66873 7.27614 7.66873H7.95585V5.83278ZM9.17982 7.66873H12.988V5.83278C12.988 5.67047 12.9235 5.51481 12.8087 5.40004C12.694 5.28527 12.5383 5.22079 12.376 5.22079H9.7918C9.62949 5.22079 9.47383 5.28527 9.35906 5.40004C9.24429 5.51481 9.17982 5.67047 9.17982 5.83278V7.66873ZM7.27614 8.8927C7.11383 8.8927 6.95817 8.95718 6.8434 9.07195C6.72863 9.18672 6.66415 9.34238 6.66415 9.50468V11.3406H10.4723V8.8927H7.27614ZM11.6963 8.8927V11.3406H15.5037V9.50468C15.5037 9.34238 15.4392 9.18672 15.3244 9.07195C15.2096 8.95718 15.054 8.8927 14.8917 8.8927H11.6963ZM4.75966 12.5646C4.59735 12.5646 4.44169 12.6291 4.32692 12.7439C4.21215 12.8586 4.14767 13.0143 4.14767 13.1766V15.0125H7.95585V12.5646H4.75966ZM9.17982 12.5646V15.0125H12.988V12.5646H9.17982ZM14.212 12.5646V15.0125H18.0193V13.1766C18.0193 13.0143 17.9548 12.8586 17.8401 12.7439C17.7253 12.6291 17.5696 12.5646 17.4073 12.5646H14.212Z" fill="#3F7E00"/>
</svg>
