<svg width="21" height="21" viewBox="0 0 21 21" fill="none" xmlns="http://www.w3.org/2000/svg">
<path d="M2.26001 14.8376V6.67786H3.89197V14.8376H2.26001ZM4.70795 16.4696V8.30981C4.70795 7.41224 5.02754 6.64386 5.66672 6.00467C6.30591 5.36549 7.07429 5.0459 7.97186 5.0459H12.8677C13.7653 5.0459 14.5337 5.36549 15.1729 6.00467C15.8121 6.64386 16.1317 7.41224 16.1317 8.30981V16.4696H4.70795ZM16.9476 14.8376V6.67786H18.5796V14.8376H16.9476ZM6.3399 14.8376H9.60382V11.5737H7.97186V9.94177H9.60382V6.67786H7.97186C7.52307 6.67786 7.13902 6.83779 6.8197 7.15765C6.50038 7.47752 6.34045 7.86157 6.3399 8.30981V14.8376ZM11.2358 14.8376H14.4997V8.30981C14.4997 7.86103 14.34 7.47697 14.0207 7.15765C13.7014 6.83833 13.3171 6.6784 12.8677 6.67786H11.2358V9.94177H12.8677V11.5737H11.2358V14.8376Z" fill="#3F7E00"/>
</svg>
