<svg width="19" height="21" viewBox="0 0 19 21" fill="none" xmlns="http://www.w3.org/2000/svg">
<path d="M11.7822 0.968654C11.7419 0.975293 11.7041 0.992656 11.6728 1.01891C11.6415 1.04517 11.6179 1.07936 11.6044 1.11788L10.0606 5.74366H4.98814C4.93974 5.74315 4.89244 5.75805 4.85311 5.78621C4.81377 5.81437 4.78444 5.85433 4.76937 5.90027C4.7543 5.9462 4.75429 5.99574 4.76932 6.04168C4.78435 6.08763 4.81365 6.1276 4.85297 6.15579L8.8156 9.01227L7.05127 13.8512C7.0375 13.8952 7.03744 13.9424 7.0511 13.9864C7.06476 14.0304 7.09149 14.0693 7.12775 14.0978C7.16401 14.1263 7.20809 14.1431 7.25415 14.146C7.3002 14.149 7.34606 14.1378 7.38564 14.1141L11.8178 11.2363L16.25 14.1141C16.2896 14.1378 16.3354 14.149 16.3815 14.146C16.4275 14.1431 16.4716 14.1263 16.5079 14.0978C16.5441 14.0693 16.5709 14.0304 16.5845 13.9864C16.5982 13.9424 16.5981 13.8952 16.5844 13.8512L14.82 9.01227L18.7827 6.15579C18.822 6.1276 18.8513 6.08763 18.8663 6.04168C18.8813 5.99574 18.8813 5.9462 18.8663 5.90027C18.8512 5.85433 18.8219 5.81437 18.7825 5.78621C18.7432 5.75805 18.6959 5.74315 18.6475 5.74366H13.575L12.0312 1.11788C12.0136 1.06795 11.9791 1.02572 11.9337 0.998481C11.8882 0.97124 11.8347 0.960685 11.7822 0.968654ZM11.8178 1.9066L13.198 6.0421C13.2128 6.08712 13.2414 6.12639 13.2796 6.15442C13.3179 6.18244 13.364 6.19783 13.4114 6.19842H17.9432L14.4145 8.74225C14.3746 8.77159 14.3454 8.81314 14.3312 8.86059C14.3171 8.90804 14.3189 8.95881 14.3363 9.00517L15.9227 13.368L11.9388 10.7816C11.9025 10.7589 11.8606 10.7468 11.8178 10.7468C11.775 10.7468 11.7331 10.7589 11.6969 10.7816L7.71289 13.368L9.29937 9.00517C9.31676 8.95881 9.31852 8.90804 9.3044 8.86059C9.29027 8.81314 9.26103 8.77159 9.22112 8.74225L5.69245 6.19842H10.2242C10.2717 6.19783 10.3178 6.18244 10.356 6.15442C10.3943 6.12639 10.4228 6.08712 10.4377 6.0421L11.8178 1.9066ZM4.52571 10.5116C4.5038 10.5132 4.48223 10.5179 4.46168 10.5257C4.03538 10.6606 3.47297 11.0157 2.89655 11.5134C2.32013 12.0111 1.74681 12.6521 1.3741 13.3679C1.35402 13.3943 1.33996 13.4248 1.33291 13.4572C1.32586 13.4896 1.32598 13.5232 1.33328 13.5555C1.34058 13.5879 1.35487 13.6182 1.37515 13.6445C1.39543 13.6707 1.42122 13.6922 1.45069 13.7075C1.48017 13.7227 1.51263 13.7313 1.5458 13.7327C1.57896 13.7341 1.61203 13.7283 1.64269 13.7155C1.67335 13.7028 1.70086 13.6836 1.72328 13.6591C1.7457 13.6347 1.7625 13.6056 1.7725 13.574C2.10776 12.9301 2.65275 12.323 3.19535 11.8544C3.73795 11.3859 4.29527 11.0568 4.60397 10.9591C4.66143 10.9467 4.71186 10.9126 4.74468 10.8638C4.77751 10.8151 4.79019 10.7556 4.78008 10.6978C4.76997 10.6399 4.73784 10.5882 4.69043 10.5535C4.64302 10.5188 4.58399 10.5037 4.52571 10.5115V10.5116ZM4.52571 14.377C4.47313 14.379 4.42286 14.3991 4.38343 14.4339C3.15855 15.4608 1.43176 16.8864 0.66979 20.2463C0.659059 20.2766 0.654875 20.3088 0.657511 20.3408C0.660148 20.3728 0.669547 20.4039 0.685088 20.4321C0.700629 20.4602 0.72196 20.4847 0.747675 20.504C0.773391 20.5233 0.802908 20.5369 0.834281 20.544C0.865655 20.5511 0.898173 20.5514 0.929694 20.5451C0.961215 20.5387 0.991024 20.5257 1.01716 20.5069C1.04329 20.4882 1.06515 20.4642 1.0813 20.4364C1.09746 20.4086 1.10754 20.3777 1.11087 20.3458C1.84661 17.1016 3.45252 15.813 4.68223 14.7821C4.72023 14.7519 4.7476 14.7104 4.76035 14.6637C4.77309 14.6169 4.77054 14.5673 4.75307 14.5221C4.73559 14.4769 4.70411 14.4384 4.66321 14.4123C4.62231 14.3862 4.57414 14.3739 4.52571 14.377ZM0.655561 14.8318C0.613806 14.8328 0.573135 14.8453 0.538002 14.8678C0.502868 14.8904 0.474624 14.9222 0.456362 14.9597L0.228706 15.4145C0.201751 15.4691 0.19753 15.5321 0.216967 15.5898C0.236404 15.6475 0.277918 15.6952 0.332438 15.7224C0.386957 15.7496 0.45005 15.7542 0.50793 15.7351C0.56581 15.716 0.613771 15.6748 0.641333 15.6205L0.868988 15.1658C0.887964 15.1302 0.897128 15.0902 0.89554 15.0499C0.893952 15.0096 0.881671 14.9705 0.859953 14.9365C0.838236 14.9025 0.807863 14.8749 0.771948 14.8565C0.736032 14.8381 0.695865 14.8296 0.655561 14.8318ZM6.53905 16.2032C5.38741 16.4137 4.43083 17.0768 3.73603 17.7949C3.04123 18.513 2.60652 19.271 2.49104 19.7916C2.48031 19.8218 2.47613 19.854 2.47876 19.8861C2.4814 19.9181 2.4908 19.9492 2.50634 19.9773C2.52188 20.0054 2.54321 20.0299 2.56892 20.0492C2.59464 20.0685 2.62415 20.0822 2.65552 20.0892C2.68689 20.0963 2.71941 20.0966 2.75093 20.0903C2.78245 20.0839 2.81226 20.0709 2.83839 20.0522C2.86452 20.0335 2.88639 20.0094 2.90254 19.9816C2.9187 19.9539 2.92878 19.923 2.93212 19.891C3.01117 19.5346 3.41658 18.783 4.06329 18.1146C4.71 17.4462 5.59633 16.8387 6.62442 16.6508C6.65393 16.6453 6.68206 16.6341 6.7072 16.6177C6.73233 16.6013 6.75399 16.5801 6.77091 16.5553C6.78783 16.5305 6.79969 16.5027 6.80581 16.4733C6.81194 16.444 6.81219 16.4137 6.80658 16.3842C6.80096 16.3548 6.78958 16.3267 6.77308 16.3017C6.75658 16.2766 6.7353 16.2551 6.71044 16.2383C6.68559 16.2214 6.65765 16.2097 6.62824 16.2036C6.59883 16.1976 6.56852 16.1975 6.53905 16.2032Z" fill="#3F7E00"/>
</svg>
