<svg width="21" height="20" viewBox="0 0 21 20" fill="none" xmlns="http://www.w3.org/2000/svg">
<path d="M15.3547 12.3851C15.1939 12.385 15.0347 12.3533 14.8862 12.2918C14.7377 12.2302 14.6027 12.14 14.4891 12.0263C14.3754 11.9126 14.2853 11.7776 14.2238 11.629C14.1623 11.4805 14.1307 11.3213 14.1307 11.1605C14.1307 10.9997 14.1625 10.8405 14.224 10.692C14.2856 10.5435 14.3758 10.4086 14.4895 10.2949C14.6032 10.1812 14.7382 10.0911 14.8868 10.0296C15.0353 9.96812 15.1945 9.9365 15.3553 9.93654C15.68 9.93662 15.9914 10.0657 16.2209 10.2953C16.4504 10.525 16.5793 10.8364 16.5793 11.1611C16.5792 11.4858 16.4501 11.7972 16.2205 12.0267C15.9908 12.2563 15.6794 12.3852 15.3547 12.3851ZM13.99 8.1012H6.92765C6.43194 8.1012 6.07149 7.64098 6.20184 7.17404L6.81505 4.97151C6.86031 4.81432 6.95574 4.67625 7.08678 4.57836C7.21783 4.48046 7.37729 4.42811 7.54086 4.42929H13.3767C13.7158 4.42929 14.0138 4.65144 14.1026 4.97151L14.7158 7.17404C14.8461 7.64098 14.4857 8.1012 13.99 8.1012ZM12.9067 11.5246C12.9045 11.7539 12.8117 11.9731 12.6485 12.1342C12.4854 12.2954 12.2652 12.3856 12.0359 12.3851H8.88172C8.6524 12.3856 8.43218 12.2954 8.26905 12.1342C8.10593 11.9731 8.01312 11.7539 8.01086 11.5246V11.4096C8.01312 11.1803 8.10593 10.9612 8.26905 10.8C8.43218 10.6388 8.6524 10.5486 8.88172 10.5491H12.0359C12.2652 10.5486 12.4854 10.6388 12.6485 10.8C12.8117 10.9612 12.9045 11.1803 12.9067 11.4096V11.5246ZM5.56293 12.3851C5.40215 12.385 5.24296 12.3533 5.09444 12.2918C4.94592 12.2302 4.81098 12.14 4.69732 12.0263C4.58367 11.9126 4.49352 11.7776 4.43203 11.629C4.37055 11.4805 4.33892 11.3213 4.33896 11.1605C4.339 10.9997 4.37071 10.8405 4.43227 10.692C4.49383 10.5435 4.58404 10.4086 4.69776 10.2949C4.81147 10.1812 4.94646 10.0911 5.09501 10.0296C5.24356 9.96812 5.40277 9.9365 5.56354 9.93654C5.88824 9.93662 6.1996 10.0657 6.42914 10.2953C6.65868 10.525 6.78759 10.8364 6.78751 11.1611C6.78743 11.4858 6.65836 11.7972 6.42871 12.0267C6.19906 12.2563 5.88762 12.3852 5.56293 12.3851ZM17.3822 8.90779L16.6447 8.5559C16.547 8.50893 16.4608 8.44106 16.3921 8.3571C16.3235 8.27314 16.2741 8.17512 16.2476 8.06999L15.1472 3.76223C15.1077 3.60344 15.0162 3.46241 14.8874 3.36152C14.7586 3.26063 14.5997 3.20565 14.4361 3.20532H6.48152C6.14615 3.20532 5.85423 3.4342 5.77039 3.76223L4.67004 8.06999C4.61496 8.28357 4.46992 8.46166 4.27286 8.5559L3.53604 8.90779C3.279 9.0308 3.11499 9.29212 3.11499 9.57975V13.4781C3.11499 13.8881 3.44363 14.221 3.84937 14.221H4.95094V15.5515C4.95159 15.8477 5.06953 16.1315 5.27896 16.341C5.48839 16.5504 5.77225 16.6683 6.06843 16.669H6.89338C7.18956 16.6683 7.47342 16.5504 7.68285 16.341C7.89228 16.1315 8.01022 15.8477 8.01086 15.5515V14.221H12.9067V15.5515C12.9074 15.8477 13.0253 16.1315 13.2348 16.341C13.4442 16.5504 13.728 16.6683 14.0242 16.669H14.8492C15.1454 16.6683 15.4292 16.5504 15.6386 16.341C15.8481 16.1315 15.966 15.8477 15.9667 15.5515V14.221H17.0682C17.474 14.221 17.8026 13.8881 17.8026 13.4781V9.57975C17.8026 9.29212 17.6386 9.0308 17.3822 8.90779Z" fill="#3F7E00"/>
</svg>
