<svg width="21" height="21" viewBox="0 0 21 21" fill="none" xmlns="http://www.w3.org/2000/svg">
<path d="M16.0318 5.75417C15.5891 4.69716 14.8439 3.79455 13.8898 3.15975C12.9357 2.52495 11.8153 2.18628 10.6693 2.18628C9.52332 2.18628 8.4029 2.52495 7.4488 3.15975C6.49471 3.79455 5.74949 4.69716 5.30679 5.75417C4.35072 6.19116 3.54034 6.89364 2.9721 7.77802C2.40385 8.66239 2.10167 9.69141 2.10152 10.7426C2.09387 13.6648 4.54946 16.1893 7.46709 16.2658C8.36451 16.2874 9.25365 16.0897 10.0573 15.6897V18.7137C10.0573 18.876 10.1218 19.0317 10.2366 19.1464C10.3513 19.2612 10.507 19.3257 10.6693 19.3257C10.8316 19.3257 10.9873 19.2612 11.102 19.1464C11.2168 19.0317 11.2813 18.876 11.2813 18.7137V15.6897C12.0421 16.0674 12.8798 16.2645 13.7292 16.2658H13.8684C16.7891 16.1893 19.2455 13.6648 19.2371 10.7426C19.2369 9.69141 18.9347 8.66239 18.3665 7.77802C17.7983 6.89364 16.9879 6.19116 16.0318 5.75417ZM13.8401 15.0418C12.9275 15.0656 12.0311 14.7976 11.2813 14.2768V11.1404L14.6151 9.47427C14.687 9.43831 14.7511 9.38853 14.8038 9.32778C14.8565 9.26702 14.8967 9.19649 14.9222 9.1202C14.9476 9.04391 14.9577 8.96335 14.952 8.88314C14.9463 8.80292 14.9249 8.72461 14.8889 8.65268C14.853 8.58076 14.8032 8.51661 14.7424 8.46392C14.6817 8.41123 14.6111 8.37103 14.5349 8.3456C14.4586 8.32016 14.378 8.31001 14.2978 8.31571C14.2176 8.32141 14.1393 8.34286 14.0673 8.37882L11.2813 9.76802V7.69799C11.2813 7.53568 11.2168 7.38002 11.102 7.26525C10.9873 7.15048 10.8316 7.086 10.6693 7.086C10.507 7.086 10.3513 7.15048 10.2366 7.26525C10.1218 7.38002 10.0573 7.53568 10.0573 7.69799V11.604L7.27126 10.2102C7.12599 10.1375 6.95782 10.1256 6.80374 10.177C6.64967 10.2283 6.5223 10.3388 6.44967 10.484C6.37703 10.6293 6.36508 10.7975 6.41644 10.9516C6.4678 11.1056 6.57826 11.233 6.72353 11.3056L10.0573 12.9718V14.2722C9.30767 14.7934 8.41113 15.0614 7.49846 15.0372C5.23029 14.9829 3.31937 13.0161 3.32549 10.7457C3.32491 9.89178 3.58057 9.05737 4.0594 8.35037C4.53823 7.64338 5.2182 7.09633 6.01133 6.78001C6.0909 6.74806 6.16286 6.69975 6.22256 6.63821C6.28226 6.57667 6.32836 6.50327 6.35787 6.42277C6.68068 5.53875 7.26743 4.77533 8.03862 4.23593C8.80982 3.69653 9.72819 3.40724 10.6693 3.40724C11.6104 3.40724 12.5288 3.69653 13.3 4.23593C14.0712 4.77533 14.6579 5.53875 14.9807 6.42277C15.0102 6.50327 15.0563 6.57667 15.116 6.63821C15.1757 6.69975 15.2477 6.74806 15.3273 6.78001C16.1203 7.09651 16.8001 7.6436 17.2789 8.35055C17.7577 9.05751 18.0135 9.89183 18.0131 10.7457C18.0192 13.0161 16.1083 14.9829 13.8401 15.0418Z" fill="#3F7E00"/>
</svg>
