<svg width="45" height="43" viewBox="0 0 45 43" fill="none" xmlns="http://www.w3.org/2000/svg">
<g clip-path="url(#clip0_53_462)">
<path d="M11.0815 22.0296L13.1716 7.15788L17.5554 4.74089L20.2162 7.38966L23.5041 5.57692L26.1649 8.2257L29.4528 6.41296L33.0006 9.94466L30.9105 24.8164L11.0815 22.0296ZM13.3431 20.3254L17.3089 20.8827L18.9809 8.98536L17.207 7.21951L15.0151 8.428L13.3431 20.3254ZM19.2918 21.1614L23.2576 21.7188L24.9296 9.82139L23.1557 8.05554L20.9638 9.26404L19.2918 21.1614ZM25.2405 21.9975L29.2062 22.5548L30.8783 10.6574L29.1044 8.89158L26.9125 10.1001L25.2405 21.9975Z" fill="url(#paint0_radial_53_462)"/>
</g>
<path d="M5.75255 32.8068C5.71651 32.8669 5.67646 32.9129 5.63241 32.945C5.59236 32.973 5.5423 32.987 5.48223 32.987C5.41415 32.987 5.33405 32.953 5.24194 32.8849C5.14983 32.8168 5.0337 32.7427 4.89353 32.6626C4.75737 32.5785 4.59117 32.5024 4.39493 32.4344C4.20271 32.3663 3.96843 32.3322 3.6921 32.3322C3.43179 32.3322 3.20151 32.3683 3.00128 32.4404C2.80504 32.5085 2.63884 32.6026 2.50268 32.7227C2.37052 32.8429 2.27041 32.985 2.20232 33.1492C2.13424 33.3094 2.1002 33.4836 2.1002 33.6718C2.1002 33.9121 2.15827 34.1124 2.27441 34.2726C2.39455 34.4287 2.55074 34.5629 2.74297 34.675C2.9392 34.7872 3.15946 34.8853 3.40375 34.9694C3.65205 35.0495 3.90435 35.1336 4.16066 35.2217C4.42097 35.3098 4.67327 35.4099 4.91756 35.522C5.16585 35.6302 5.38611 35.7683 5.57834 35.9365C5.77458 36.1047 5.93076 36.311 6.0469 36.5553C6.16704 36.7996 6.22712 37.0999 6.22712 37.4563C6.22712 37.8328 6.16304 38.1872 6.03489 38.5196C5.90673 38.848 5.71851 39.1343 5.47021 39.3786C5.22592 39.6229 4.92356 39.8152 4.56314 39.9553C4.20671 40.0955 3.80023 40.1656 3.34368 40.1656C2.78302 40.1656 2.27441 40.0655 1.81787 39.8652C1.36132 39.661 0.970858 39.3866 0.646472 39.0422L0.982873 38.4896C1.01491 38.4455 1.05296 38.4095 1.09701 38.3814C1.14507 38.3494 1.19713 38.3334 1.25319 38.3334C1.30526 38.3334 1.36333 38.3554 1.4274 38.3995C1.49548 38.4395 1.57157 38.4916 1.65567 38.5557C1.73977 38.6197 1.83589 38.6898 1.94402 38.7659C2.05215 38.842 2.17429 38.9121 2.31045 38.9762C2.45062 39.0402 2.60881 39.0943 2.78502 39.1383C2.96123 39.1784 3.15946 39.1984 3.37973 39.1984C3.65606 39.1984 3.90235 39.1604 4.11861 39.0843C4.33486 39.0082 4.51708 38.9021 4.66526 38.7659C4.81744 38.6257 4.93358 38.4595 5.01367 38.2673C5.09377 38.0751 5.13381 37.8608 5.13381 37.6245C5.13381 37.3642 5.07374 37.152 4.9536 36.9878C4.83746 36.8196 4.68328 36.6794 4.49105 36.5673C4.29882 36.4552 4.07856 36.361 3.83026 36.285C3.58197 36.2049 3.32967 36.1248 3.07336 36.0447C2.81706 35.9606 2.56476 35.8645 2.31646 35.7563C2.06816 35.6482 1.8479 35.508 1.65567 35.3358C1.46344 35.1636 1.30726 34.9494 1.18712 34.6931C1.07098 34.4327 1.01291 34.1124 1.01291 33.7319C1.01291 33.4276 1.07098 33.1332 1.18712 32.8489C1.30726 32.5645 1.47946 32.3122 1.70373 32.092C1.932 31.8717 2.21033 31.6955 2.53872 31.5633C2.87112 31.4312 3.25157 31.3651 3.68008 31.3651C4.16066 31.3651 4.59718 31.4412 4.98964 31.5934C5.38611 31.7455 5.73453 31.9658 6.03489 32.2542L5.75255 32.8068ZM11.6581 36.363C11.6581 36.1147 11.622 35.8885 11.5499 35.6842C11.4818 35.476 11.3797 35.2978 11.2436 35.1496C11.1114 34.9974 10.9492 34.8813 10.757 34.8012C10.5647 34.7171 10.3465 34.675 10.1022 34.675C9.58959 34.675 9.1831 34.8252 8.88275 35.1256C8.58639 35.4219 8.40217 35.8344 8.33009 36.363H11.6581ZM12.5231 39.2164C12.3909 39.3766 12.2327 39.5168 12.0485 39.6369C11.8643 39.7531 11.6661 39.8492 11.4538 39.9253C11.2456 40.0014 11.0293 40.0574 10.805 40.0935C10.5808 40.1335 10.3585 40.1536 10.1382 40.1536C9.71774 40.1536 9.32928 40.0835 8.97285 39.9433C8.62043 39.7991 8.31407 39.5909 8.05376 39.3186C7.79745 39.0422 7.59722 38.7018 7.45304 38.2973C7.30887 37.8929 7.23679 37.4283 7.23679 36.9037C7.23679 36.4792 7.30086 36.0827 7.42902 35.7143C7.56117 35.3458 7.7494 35.0275 7.99369 34.7591C8.23798 34.4868 8.53633 34.2746 8.88875 34.1224C9.24117 33.9662 9.63765 33.8881 10.0782 33.8881C10.4426 33.8881 10.779 33.9502 11.0874 34.0743C11.3997 34.1945 11.6681 34.3707 11.8923 34.6029C12.1206 34.8312 12.2988 35.1156 12.427 35.456C12.5551 35.7924 12.6192 36.1768 12.6192 36.6093C12.6192 36.7775 12.6012 36.8897 12.5651 36.9457C12.5291 37.0018 12.461 37.0298 12.3609 37.0298H8.29405C8.30606 37.4143 8.35812 37.7487 8.45023 38.033C8.54635 38.3174 8.6785 38.5557 8.8467 38.7479C9.0149 38.9361 9.21514 39.0783 9.44742 39.1744C9.6797 39.2665 9.94 39.3126 10.2283 39.3126C10.4967 39.3126 10.7269 39.2825 10.9192 39.2224C11.1154 39.1584 11.2836 39.0903 11.4238 39.0182C11.5639 38.9461 11.6801 38.88 11.7722 38.82C11.8683 38.7559 11.9504 38.7239 12.0185 38.7239C12.1066 38.7239 12.1747 38.7579 12.2227 38.826L12.5231 39.2164ZM14.9478 35.2037C15.14 34.7872 15.3763 34.4628 15.6567 34.2305C15.937 33.9942 16.2794 33.8761 16.6839 33.8761C16.812 33.8761 16.9342 33.8901 17.0503 33.9181C17.1705 33.9462 17.2766 33.9902 17.3687 34.0503L17.2906 34.8492C17.2666 34.9494 17.2065 34.9994 17.1104 34.9994C17.0543 34.9994 16.9722 34.9874 16.8641 34.9634C16.756 34.9394 16.6338 34.9273 16.4977 34.9273C16.3054 34.9273 16.1332 34.9554 15.981 35.0114C15.8329 35.0675 15.6987 35.1516 15.5786 35.2637C15.4624 35.3719 15.3563 35.508 15.2602 35.6722C15.1681 35.8324 15.084 36.0166 15.0079 36.2249V40.0695H13.9326V33.9842H14.5453C14.6615 33.9842 14.7416 34.0062 14.7856 34.0503C14.8297 34.0943 14.8597 34.1704 14.8757 34.2786L14.9478 35.2037ZM23.5231 33.9842L21.0422 40.0695H20.081L17.6001 33.9842H18.4711C18.5592 33.9842 18.6313 34.0062 18.6874 34.0503C18.7434 34.0943 18.7815 34.1464 18.8015 34.2065L20.3453 38.1231C20.3934 38.2713 20.4354 38.4155 20.4715 38.5557C20.5075 38.6958 20.5416 38.836 20.5736 38.9762C20.6056 38.836 20.6397 38.6958 20.6757 38.5557C20.7118 38.4155 20.7558 38.2713 20.8079 38.1231L22.3697 34.2065C22.3938 34.1424 22.4338 34.0903 22.4899 34.0503C22.5459 34.0062 22.612 33.9842 22.6881 33.9842H23.5231ZM25.6331 33.9842V40.0695H24.5639V33.9842H25.6331ZM25.8614 32.0739C25.8614 32.1781 25.8394 32.2762 25.7953 32.3683C25.7553 32.4564 25.6992 32.5365 25.6271 32.6086C25.559 32.6767 25.4769 32.7307 25.3808 32.7708C25.2887 32.8108 25.1906 32.8308 25.0865 32.8308C24.9824 32.8308 24.8842 32.8108 24.7921 32.7708C24.704 32.7307 24.6259 32.6767 24.5578 32.6086C24.4898 32.5365 24.4357 32.4564 24.3957 32.3683C24.3556 32.2762 24.3356 32.1781 24.3356 32.0739C24.3356 31.9698 24.3556 31.8717 24.3957 31.7796C24.4357 31.6835 24.4898 31.6014 24.5578 31.5333C24.6259 31.4612 24.704 31.4051 24.7921 31.3651C24.8842 31.325 24.9824 31.305 25.0865 31.305C25.1906 31.305 25.2887 31.325 25.3808 31.3651C25.4769 31.4051 25.559 31.4612 25.6271 31.5333C25.6992 31.6014 25.7553 31.6835 25.7953 31.7796C25.8394 31.8717 25.8614 31.9698 25.8614 32.0739ZM31.6251 35.0655C31.593 35.1096 31.561 35.1436 31.529 35.1676C31.4969 35.1917 31.4529 35.2037 31.3968 35.2037C31.3367 35.2037 31.2706 35.1796 31.1986 35.1316C31.1265 35.0795 31.0364 35.0235 30.9282 34.9634C30.8241 34.9033 30.694 34.8492 30.5378 34.8012C30.3856 34.7491 30.1974 34.7231 29.9731 34.7231C29.6727 34.7231 29.4084 34.7772 29.1802 34.8853C28.9519 34.9894 28.7597 35.1416 28.6035 35.3418C28.4513 35.5421 28.3352 35.7844 28.2551 36.0687C28.179 36.353 28.1409 36.6714 28.1409 37.0238C28.1409 37.3923 28.183 37.7207 28.2671 38.009C28.3512 38.2933 28.4693 38.5336 28.6215 38.7299C28.7777 38.9221 28.9639 39.0703 29.1802 39.1744C29.4004 39.2745 29.6467 39.3246 29.919 39.3246C30.1793 39.3246 30.3936 39.2945 30.5618 39.2345C30.73 39.1704 30.8682 39.1003 30.9763 39.0242C31.0884 38.9481 31.1805 38.88 31.2526 38.82C31.3287 38.7559 31.4028 38.7239 31.4749 38.7239C31.563 38.7239 31.6311 38.7579 31.6791 38.826L31.9795 39.2164C31.8473 39.3806 31.6972 39.5208 31.529 39.6369C31.3608 39.7531 31.1785 39.8512 30.9823 39.9313C30.7901 40.0074 30.5878 40.0635 30.3756 40.0995C30.1633 40.1355 29.9471 40.1536 29.7268 40.1536C29.3464 40.1536 28.9919 40.0835 28.6635 39.9433C28.3392 39.8031 28.0568 39.6009 27.8165 39.3366C27.5763 39.0683 27.388 38.7399 27.2519 38.3514C27.1157 37.963 27.0476 37.5204 27.0476 37.0238C27.0476 36.5713 27.1097 36.1528 27.2338 35.7683C27.362 35.3839 27.5462 35.0535 27.7865 34.7772C28.0308 34.4968 28.3291 34.2786 28.6816 34.1224C29.038 33.9662 29.4465 33.8881 29.907 33.8881C30.3355 33.8881 30.712 33.9582 31.0364 34.0983C31.3648 34.2345 31.6551 34.4287 31.9074 34.681L31.6251 35.0655ZM37.0946 36.363C37.0946 36.1147 37.0585 35.8885 36.9865 35.6842C36.9184 35.476 36.8163 35.2978 36.6801 35.1496C36.5479 34.9974 36.3857 34.8813 36.1935 34.8012C36.0013 34.7171 35.783 34.675 35.5387 34.675C35.0261 34.675 34.6196 34.8252 34.3193 35.1256C34.0229 35.4219 33.8387 35.8344 33.7666 36.363H37.0946ZM37.9596 39.2164C37.8275 39.3766 37.6693 39.5168 37.485 39.6369C37.3008 39.7531 37.1026 39.8492 36.8903 39.9253C36.6821 40.0014 36.4658 40.0574 36.2416 40.0935C36.0173 40.1335 35.795 40.1536 35.5748 40.1536C35.1543 40.1536 34.7658 40.0835 34.4094 39.9433C34.057 39.7991 33.7506 39.5909 33.4903 39.3186C33.234 39.0422 33.0337 38.7018 32.8896 38.2973C32.7454 37.8929 32.6733 37.4283 32.6733 36.9037C32.6733 36.4792 32.7374 36.0827 32.8655 35.7143C32.9977 35.3458 33.1859 35.0275 33.4302 34.7591C33.6745 34.4868 33.9729 34.2746 34.3253 34.1224C34.6777 33.9662 35.0742 33.8881 35.5147 33.8881C35.8791 33.8881 36.2155 33.9502 36.5239 34.0743C36.8363 34.1945 37.1046 34.3707 37.3289 34.6029C37.5571 34.8312 37.7353 35.1156 37.8635 35.456C37.9916 35.7924 38.0557 36.1768 38.0557 36.6093C38.0557 36.7775 38.0377 36.8897 38.0017 36.9457C37.9656 37.0018 37.8975 37.0298 37.7974 37.0298H33.7306C33.7426 37.4143 33.7947 37.7487 33.8868 38.033C33.9829 38.3174 34.115 38.5557 34.2832 38.7479C34.4514 38.9361 34.6517 39.0783 34.884 39.1744C35.1162 39.2665 35.3765 39.3126 35.6649 39.3126C35.9332 39.3126 36.1635 39.2825 36.3557 39.2224C36.5519 39.1584 36.7201 39.0903 36.8603 39.0182C37.0005 38.9461 37.1166 38.88 37.2087 38.82C37.3048 38.7559 37.3869 38.7239 37.455 38.7239C37.5431 38.7239 37.6112 38.7579 37.6593 38.826L37.9596 39.2164ZM42.9134 34.9874C42.8653 35.0755 42.7912 35.1196 42.6911 35.1196C42.631 35.1196 42.5629 35.0975 42.4868 35.0535C42.4108 35.0094 42.3166 34.9614 42.2045 34.9093C42.0964 34.8532 41.9662 34.8032 41.814 34.7591C41.6619 34.7111 41.4816 34.6871 41.2734 34.6871C41.0932 34.6871 40.931 34.7111 40.7868 34.7591C40.6426 34.8032 40.5185 34.8653 40.4144 34.9454C40.3143 35.0255 40.2362 35.1196 40.1801 35.2277C40.128 35.3318 40.102 35.446 40.102 35.5701C40.102 35.7263 40.1461 35.8564 40.2342 35.9606C40.3263 36.0647 40.4464 36.1548 40.5946 36.2309C40.7428 36.307 40.911 36.3751 41.0992 36.4351C41.2874 36.4912 41.4796 36.5533 41.6759 36.6214C41.8761 36.6854 42.0703 36.7575 42.2586 36.8376C42.4468 36.9177 42.615 37.0178 42.7632 37.138C42.9114 37.2581 43.0295 37.4063 43.1176 37.5825C43.2097 37.7547 43.2558 37.963 43.2558 38.2072C43.2558 38.4876 43.2057 38.7479 43.1056 38.9882C43.0055 39.2245 42.8573 39.4307 42.6611 39.6069C42.4648 39.7791 42.2245 39.9153 41.9402 40.0154C41.6559 40.1155 41.3275 40.1656 40.955 40.1656C40.5305 40.1656 40.1461 40.0975 39.8016 39.9613C39.4572 39.8212 39.1649 39.643 38.9246 39.4267L39.1769 39.0182C39.2089 38.9661 39.247 38.9261 39.291 38.8981C39.3351 38.87 39.3912 38.856 39.4592 38.856C39.5313 38.856 39.6074 38.884 39.6875 38.9401C39.7676 38.9962 39.8637 39.0583 39.9759 39.1263C40.092 39.1944 40.2322 39.2565 40.3964 39.3126C40.5606 39.3686 40.7648 39.3967 41.0091 39.3967C41.2173 39.3967 41.3996 39.3706 41.5557 39.3186C41.7119 39.2625 41.8421 39.1884 41.9462 39.0963C42.0503 39.0042 42.1264 38.8981 42.1745 38.7779C42.2265 38.6578 42.2526 38.5296 42.2526 38.3935C42.2526 38.2253 42.2065 38.0871 42.1144 37.979C42.0263 37.8668 41.9082 37.7727 41.76 37.6966C41.6118 37.6165 41.4416 37.5485 41.2494 37.4924C41.0611 37.4323 40.8669 37.3702 40.6667 37.3062C40.4704 37.2421 40.2762 37.17 40.084 37.0899C39.8958 37.0058 39.7276 36.9017 39.5794 36.7775C39.4312 36.6534 39.3111 36.5012 39.219 36.321C39.1308 36.1368 39.0868 35.9145 39.0868 35.6542C39.0868 35.4219 39.1349 35.1997 39.231 34.9874C39.3271 34.7712 39.4673 34.5829 39.6515 34.4227C39.8357 34.2585 40.062 34.1284 40.3303 34.0323C40.5986 33.9362 40.905 33.8881 41.2494 33.8881C41.6498 33.8881 42.0083 33.9522 42.3247 34.0803C42.645 34.2045 42.9214 34.3767 43.1536 34.5969L42.9134 34.9874Z" fill="#F3F3F4"/>
<defs>
<radialGradient id="paint0_radial_53_462" cx="0" cy="0" r="1" gradientUnits="userSpaceOnUse" gradientTransform="translate(22.25 14.5) rotate(98) scale(9.01073 10.0119)">
<stop stop-color="#98BF3D"/>
<stop offset="1" stop-color="#6E9D00"/>
</radialGradient>
<clipPath id="clip0_53_462">
<rect width="24.0286" height="24.0286" fill="white" transform="translate(12.0247 0.930542) rotate(8)"/>
</clipPath>
</defs>
</svg>
